<svg width="680" height="700" viewBox="0 0 680 700" fill="none" xmlns="http://www.w3.org/2000/svg">
<path d="M141.013 292.304C162.887 195.833 262.889 137.914 356.767 168.214C358.661 168.812 360.555 169.463 362.476 170.114C485.207 212.44 444.937 337.493 506.303 375.967C567.669 414.441 611.779 470.226 584.924 543.347C558.068 616.442 395.066 685.71 266.574 606.836C165.586 544.83 113.146 415.066 140.988 292.304H141.013Z" stroke="#BFD9FF" stroke-width="1.11" stroke-miterlimit="10"/>
<path d="M169.736 177.958C176.68 134.419 147.126 93.4766 103.727 86.5105C60.3275 79.5445 19.5164 109.193 12.5727 152.732C5.62898 196.271 35.1822 237.213 78.5816 244.18C121.981 251.146 162.792 221.497 169.736 177.958Z" stroke="#BFD9FF" stroke-width="1.11" stroke-miterlimit="10"/>
<path d="M473.869 526.061H195.529C189.276 526.061 185.099 519.605 187.641 513.878L385.128 69.4767C386.503 66.353 389.591 64.3486 393.016 64.3486H671.355C677.608 64.3486 681.786 70.8043 679.243 76.5311L481.757 520.959C480.381 524.082 477.294 526.087 473.869 526.087V526.061Z" fill="url(#paint0_linear_280_167)"/>
<path d="M558.224 212.569L648.054 10.4384C650.234 5.54461 646.653 0 641.308 0H389.254C379.913 0 371.428 5.51858 367.613 14.0828L276.434 219.285C274.254 224.179 277.835 229.724 283.18 229.724H531.861C543.252 229.724 553.579 223.008 558.224 212.569Z" fill="white"/>
<path d="M525.609 351.08L615.439 148.949C617.619 144.055 614.038 138.511 608.693 138.511H356.638C347.297 138.511 338.812 144.029 334.998 152.594L243.819 357.796C241.639 362.69 245.22 368.234 250.565 368.234H499.246C510.637 368.234 520.964 361.518 525.609 351.08Z" stroke="white" stroke-width="1.11" stroke-miterlimit="10"/>
<path opacity="0.39" d="M411.389 279.679H422.884L391.954 340.279H204.977L212.527 325.493" stroke="#A1C2FF" stroke-width="0.55" stroke-miterlimit="10"/>
<path d="M433.201 111.852C456.894 91.2482 463.591 60.0678 448.159 42.2086C432.728 24.3494 401.012 26.5743 377.319 47.178C353.627 67.7817 346.93 98.9621 362.361 116.821C377.792 134.681 409.509 132.456 433.201 111.852Z" fill="#E6F4FF"/>
<path d="M429.876 108.011C450.775 89.8365 456.684 62.3341 443.073 46.5824C429.463 30.8307 401.488 32.7944 380.589 50.9687C359.69 69.1429 353.781 96.6453 367.392 112.397C381.002 128.149 408.978 126.185 429.876 108.011Z" fill="#94C3FF"/>
<path d="M406.042 88.2175C406.042 88.2175 383.234 91.9919 373.478 95.8445C366.861 99.8533 365.823 103.029 364.24 107.793C364.24 107.793 364.24 107.819 364.24 107.845C369.534 117.138 379.627 123.047 392.808 123.047C409.83 123.047 427.345 113.181 438.554 98.8641C432.456 89.8834 406.068 88.1914 406.068 88.1914L406.042 88.2175Z" fill="#5955D1"/>
<path d="M398.025 78.4565L394.081 95.1163C393.588 97.1988 394.626 98.9428 396.598 99.2552C399.685 99.7498 404.589 99.7238 409.805 96.3658C411.388 95.3506 412.452 93.6325 412.555 92.0186C413.1 84.2353 414.683 68.2783 414.683 68.2783L397.999 78.4304L398.025 78.4565Z" fill="#FF8D68"/>
<path d="M394.47 60.8093C394.47 60.8093 383.754 82.5712 385.829 88.4282C388.242 92.411 409.779 83.4563 413.308 77.6253C416.837 71.7944 424.932 61.2258 418.627 54.6139C412.322 48.0021 402.566 50.2668 394.444 60.8093H394.47Z" fill="#FF8D68"/>
<path d="M394.468 60.8063C394.468 60.8063 392.574 53.1271 399.061 48.5977C405.548 44.0683 413.877 44.9794 416.861 49.5088C419.845 54.0382 420.105 54.715 420.105 54.715C420.105 54.715 423.296 55.3918 424.36 58.8019C425.424 62.2119 418.677 70.8021 415.927 73.3011C413.177 75.8001 413.747 75.8522 413.747 75.8522L412.839 74.6547C412.839 74.6547 413.358 68.0949 414.682 64.2423C415.045 62.2119 412.71 59.2704 408.636 58.5676C404.536 57.8908 403.031 61.7173 394.468 60.8323V60.8063Z" fill="#7E3636"/>
<path d="M415.357 70.6983C415.357 70.6983 416.836 67.913 419.508 68.7199C422.155 69.605 416.888 77.9089 414.085 77.3362C411.413 76.6594 415.357 70.6983 415.357 70.6983Z" fill="#FF8D68"/>
<path d="M412.762 88.8936C412.762 88.8936 407.028 95.2451 401.397 97.0413C400.411 97.3536 398.932 99.306 398.932 99.306L397.895 96.5988C397.895 96.5988 394.028 94.334 395.144 90.4034L394.366 91.0021L392.29 96.1302C392.29 96.1302 390.759 100.972 390.837 102.768L396.026 99.9047C396.026 99.9047 399.192 100.972 401.709 100.061C401.709 100.061 402.773 103.679 403.759 103.992C404.719 104.304 412.555 96.8851 413.748 94.334C415.072 91.757 414.76 89.2059 414.76 89.2059L412.737 88.8936H412.762Z" fill="white"/>
<path opacity="0.39" d="M578.074 98.4763H468.887C465.54 98.4763 463.801 95.743 465.021 92.385L480.485 49.7983C481.705 46.4403 485.415 43.707 488.763 43.707H597.95C601.297 43.707 603.036 46.4403 601.816 49.7983L586.351 92.385C585.132 95.743 581.421 98.4763 578.074 98.4763Z" fill="#A1C2FF"/>
<path d="M584.379 62.9705H490.371L492.006 58.415H586.04L584.379 62.9705Z" fill="#94C3FF"/>
<path d="M543.099 73.617H486.508L488.143 69.0615H544.76L543.099 73.617Z" fill="#94C3FF"/>
<path d="M497.662 83.2488H483.002L484.663 78.6934H499.323L497.662 83.2488Z" fill="#94C3FF"/>
<path d="M473.948 118.078C472.417 121.852 468.135 124.924 464.347 124.924C460.559 124.924 458.742 121.852 460.273 118.078C461.804 114.303 466.086 111.231 469.874 111.231C473.662 111.231 475.479 114.303 473.948 118.078Z" fill="#94C3FF"/>
<path d="M497.662 118.078C496.132 121.852 491.85 124.924 488.062 124.924C484.274 124.924 482.457 121.852 483.988 118.078C485.519 114.303 489.8 111.231 493.589 111.231C497.377 111.231 499.193 114.303 497.662 118.078Z" fill="#94C3FF"/>
<path d="M521.405 118.078C519.874 121.852 515.592 124.924 511.804 124.924C508.016 124.924 506.199 121.852 507.73 118.078C509.261 114.303 513.543 111.231 517.331 111.231C521.119 111.231 522.936 114.303 521.405 118.078Z" fill="#94C3FF"/>
<path d="M545.143 118.078C543.612 121.852 539.331 124.924 535.542 124.924C531.754 124.924 529.938 121.852 531.469 118.078C533 114.303 537.281 111.231 541.069 111.231C544.857 111.231 546.674 114.303 545.143 118.078Z" fill="#FF8D02"/>
<path opacity="0.39" d="M568.862 118.078C567.331 121.852 563.05 124.924 559.261 124.924C555.473 124.924 553.656 121.852 555.187 118.078C556.718 114.303 561 111.231 564.788 111.231C568.576 111.231 570.393 114.303 568.862 118.078Z" fill="#A1C2FF"/>
<path opacity="0.39" d="M512.479 138.9L482.354 170.32L451.139 182.737L486.531 208.768L522.079 178.337L512.479 138.9Z" fill="#A1C2FF"/>
<path opacity="0.7" d="M505.344 157.149L482.355 170.321L462.92 182.634L489.283 201.636L514.218 178.781L505.344 157.149Z" fill="#A1C2FF"/>
<path d="M512.479 138.9L482.354 170.32L451.139 182.737L486.427 209.028L522.079 178.337L512.479 138.9Z" stroke="#5955D1" stroke-width="0.28" stroke-miterlimit="10"/>
<path d="M498.339 181.254C497.846 182.451 496.471 183.441 495.277 183.441C494.084 183.441 493.487 182.451 493.98 181.254C494.473 180.057 495.848 179.067 497.042 179.067C498.235 179.067 498.832 180.057 498.339 181.254Z" fill="#5955D1"/>
<path d="M468.705 159.595L495.379 180.784L447.791 183.205" stroke="#5955D1" stroke-width="0.28" stroke-miterlimit="10"/>
<path d="M484.457 216.317L496.341 180.785L527.712 177.609" stroke="#5955D1" stroke-width="0.28" stroke-miterlimit="10"/>
<path d="M514.244 134.528L496.34 180.785" stroke="#5955D1" stroke-width="0.28" stroke-miterlimit="10"/>
<path d="M471.145 159.181C470.315 161.212 468.031 162.852 466.008 162.852C463.984 162.852 462.998 161.212 463.828 159.181C464.658 157.151 466.942 155.511 468.965 155.511C470.989 155.511 471.975 157.151 471.145 159.181Z" fill="#94C3FF"/>
<path d="M449.557 183.233C448.727 185.263 446.444 186.903 444.42 186.903C442.396 186.903 441.41 185.263 442.24 183.233C443.07 181.202 445.354 179.562 447.378 179.562C449.402 179.562 450.388 181.202 449.557 183.233Z" fill="#FF8D02"/>
<path d="M487.909 216.917C487.079 218.948 484.795 220.588 482.771 220.588C480.747 220.588 479.761 218.948 480.592 216.917C481.422 214.887 483.705 213.247 485.729 213.247C487.753 213.247 488.739 214.887 487.909 216.917Z" fill="#94C3FF"/>
<path d="M531.991 177.662C531.16 179.692 528.877 181.332 526.853 181.332C524.829 181.332 523.843 179.692 524.674 177.662C525.504 175.631 527.787 173.991 529.811 173.991C531.835 173.991 532.821 175.631 531.991 177.662Z" fill="#94C3FF"/>
<path d="M518.317 133.279C517.487 135.309 515.203 136.949 513.179 136.949C511.155 136.949 510.17 135.309 511 133.279C511.83 131.248 514.113 129.608 516.137 129.608C518.161 129.608 519.147 131.248 518.317 133.279Z" fill="#FF8D02"/>
<path d="M435.079 163.969H343.691L350.671 146.633H442.058L435.079 163.969Z" fill="#5955D1"/>
<path opacity="0.39" d="M380.045 203.016H327.969L330.953 195.571H383.029L380.045 203.016Z" fill="#A1C2FF"/>
<path opacity="0.39" d="M372.232 188.154H333.959L340.939 170.791H379.211L372.232 188.154Z" fill="#A1C2FF"/>
<path d="M575.22 373.207L619.953 272.571C621.043 270.125 619.253 267.365 616.606 267.365H491.124C486.479 267.365 482.25 270.125 480.356 274.368L434.948 376.539C433.858 378.986 435.648 381.745 438.295 381.745H562.116C567.799 381.745 572.937 378.388 575.246 373.207H575.22Z" fill="white"/>
<path opacity="0.39" d="M549.781 348.297C570.909 330.954 578.658 305.395 567.088 291.208C555.517 277.022 529.01 279.58 507.881 296.923C486.753 314.266 479.005 339.826 490.575 354.012C502.145 368.199 528.652 365.64 549.781 348.297Z" fill="#A1C2FF"/>
<mask id="mask0_280_167" style="mask-type:luminance" maskUnits="userSpaceOnUse" x="485" y="282" width="88" height="82">
<path d="M549.781 348.296C570.909 330.953 578.658 305.394 567.088 291.207C555.517 277.021 529.01 279.579 507.881 296.922C486.753 314.265 479.005 339.825 490.575 354.011C502.145 368.198 528.652 365.639 549.781 348.296Z" fill="white"/>
</mask>
<g mask="url(#mask0_280_167)">
<path d="M532.199 326.819C532.199 326.819 552.542 336.971 554.696 346.265C556.85 355.558 547.82 380.079 547.82 380.079H466.941C466.941 380.079 480.201 351.341 490.502 344.573C500.803 337.804 520.705 332.65 520.705 332.65L532.199 326.819Z" fill="#514CED"/>
<path d="M523.843 320.235L517.485 333.979C516.681 335.697 517.174 337.259 518.653 337.728C520.962 338.43 524.829 338.847 529.577 336.478C531.03 335.749 532.172 334.396 532.587 333.042C534.533 326.508 538.892 313.154 538.892 313.154L523.817 320.235H523.843Z" fill="#94C3FF"/>
<path d="M524.517 304.954C524.517 304.954 511.855 322.42 512.348 327.548C513.464 331.141 532.12 325.492 536.012 320.884C539.93 316.251 548.337 308.051 544.679 301.882C541.02 295.713 532.924 296.754 524.491 304.954H524.517Z" fill="#94C3FF"/>
<path d="M525.064 302.376C525.064 302.376 524.857 302.662 524.623 303.053C523.897 304.302 522.807 306.801 525.843 306.957L529.89 307.166C529.89 307.166 536.403 303.443 538.972 307.374C540.866 311.305 534.665 313.725 535.184 315.678C535.703 317.656 535.443 317.214 534.561 318.307C533.679 319.4 532.978 321.144 530.046 322.472C527.114 323.773 524.805 323.565 522.002 325.101C519.2 326.637 513.803 324.893 513.232 323.565C511.935 322.472 511.182 324.867 510.352 326.403C509.522 327.938 506.953 328.381 509.418 330.333C511.909 332.312 513.725 333.171 518.058 330.541C522.392 327.912 522.521 328.147 526.881 327.027C531.24 325.934 534.483 323.721 536.17 320.988C537.856 318.255 538.375 314.767 539.776 313.439C541.178 312.111 541.956 313.439 541.333 314.975C540.711 316.511 546.653 313.673 548.08 309.066C549.507 304.458 547.016 304.693 546.756 302.064C546.497 299.434 549.481 296.363 546.315 293.968C543.15 291.573 540.166 294.619 539.024 293.083C537.908 291.547 532.978 291.339 529.034 294.619C525.09 297.899 524.883 302.558 524.883 302.558" fill="#5955D1"/>
<path d="M539.022 313.909C539.022 313.909 540.735 311.697 542.655 312.608C544.549 313.597 538.789 320.157 536.713 319.428C534.741 318.595 538.996 313.935 538.996 313.935L539.022 313.909Z" fill="#94C3FF"/>
<path d="M511.881 324.267C511.881 324.267 513.749 317.473 518.446 316.614C523.142 315.755 525.296 318.592 524.984 320.987C524.673 323.382 526.749 324.71 526.749 324.71C526.749 324.71 514.865 330.41 511.881 324.267Z" fill="#5955D1"/>
</g>
<path d="M518.968 509.063L563.702 408.427C564.791 405.98 563.001 403.221 560.354 403.221H434.872C430.227 403.221 425.998 405.98 424.104 410.223L378.696 512.395C377.606 514.842 379.396 517.601 382.043 517.601H505.865C511.547 517.601 516.685 514.243 518.994 509.063H518.968Z" fill="white"/>
<path opacity="0.39" d="M493.666 483.985C515.26 466.259 523.18 440.137 511.356 425.639C499.531 411.141 472.44 413.757 450.846 431.482C429.252 449.208 421.332 475.33 433.156 489.828C444.98 504.326 472.071 501.71 493.666 483.985Z" fill="#A1C2FF"/>
<mask id="mask1_280_167" style="mask-type:luminance" maskUnits="userSpaceOnUse" x="427" y="416" width="90" height="84">
<path d="M493.666 483.985C515.26 466.259 523.18 440.137 511.356 425.639C499.531 411.141 472.44 413.757 450.846 431.482C429.252 449.208 421.332 475.33 433.156 489.828C444.98 504.326 472.071 501.71 493.666 483.985Z" fill="white"/>
</mask>
<g mask="url(#mask1_280_167)">
<path d="M483.73 445.965C483.73 445.965 489.88 443.023 490.71 446.59C491.54 450.156 488.816 452.707 488.816 452.707C488.816 452.707 494.369 451.171 495.874 455.935C497.353 460.698 492.89 462.963 494.732 464.681C496.574 466.399 500.414 470.018 495.043 476.057C489.672 482.096 481.81 489.02 472.728 484.569C463.621 480.118 466.527 458.382 466.527 458.382L468.758 452.03L483.73 445.965Z" fill="#5955D1"/>
<path d="M477.79 427.742C477.79 427.742 464.064 428.914 459.73 438.545C455.397 448.177 464.012 448.853 464.012 448.853L477.79 427.742Z" fill="#5955D1"/>
<path d="M388.659 493.29L389.542 494.878C389.542 494.878 400.102 507.529 409.521 515.624H429.111C439.335 506.279 453.269 490.01 453.346 489.333C453.424 488.396 465.62 475.094 462.947 469.654C460.248 464.239 456.772 465.098 456.772 465.098C456.772 465.098 452.802 465.645 448.339 470.278C443.876 474.912 421.872 509.143 421.872 509.143C421.872 509.143 419.044 504.041 413.854 500.136C408.639 496.231 393.434 488.005 393.434 488.005C393.434 488.005 394.368 481.394 394.29 480.144C394.212 478.869 390.424 473.116 389.256 474.339C388.114 475.589 390.787 481.003 390.787 481.003C390.787 481.003 387.829 491.676 388.711 493.264L388.659 493.29Z" fill="#94C3FF"/>
<path d="M437.675 506.045C437.675 506.045 438.246 510.262 439.387 515.624H478.283C479.139 506.826 480.955 489.125 482.045 484.908C483.498 479.259 482.227 467.233 482.694 463.927C483.161 460.621 473.768 461.844 473.768 461.844L461.521 462.053L459.549 462.912C456.824 464.083 454.385 466.14 452.776 468.586C451.271 470.903 449.014 474.313 446.03 478.765C441.204 482.435 430.539 488.839 431.318 496.908C432.096 504.978 437.727 506.045 437.727 506.045H437.675Z" fill="#514CED"/>
<path d="M465.594 454.554C465.594 454.554 454.722 468.038 451.738 485.036C455.293 483.943 466.061 474.025 472.444 467.96C475.117 465.409 475.376 464.003 474.883 461.4C474.65 460.099 475.766 456.532 477.271 452.446C478.257 446.797 465.62 454.554 465.62 454.554H465.594Z" fill="#94C3FF"/>
<path d="M499.714 509.767C499.714 509.767 501.401 512.11 504.203 515.624H521.588C518.241 511.172 515.568 507.554 514.738 506.305C511.884 501.984 492.008 458.46 479.89 463.874C477.659 464.863 469.563 471.683 472.858 479.337C476.154 486.99 499.714 509.767 499.714 509.767Z" fill="#94C3FF"/>
<path d="M465.101 436.775C463.388 438.936 459.081 444.585 456.538 449.557C454.307 453.904 455.838 457.887 459.989 458.329C465.983 458.98 475.091 457.47 478.101 454.034C482.564 448.932 492.086 439.899 488.22 432.871C484.458 426.051 475.895 426.753 466.658 435.083C466.087 435.604 465.568 436.151 465.101 436.749V436.775Z" fill="#94C3FF"/>
<path d="M469.151 432.299C469.151 432.299 463.157 442.138 480.204 448.438L482.358 449.401C482.358 449.401 489.805 443.466 489.909 437.192C490.012 430.919 486.795 428.628 483.526 427.249C480.282 425.895 471.434 429.93 469.151 432.299Z" fill="#5955D1"/>
<path d="M479.734 449.868C479.734 449.868 484.041 446.874 483.989 449.634C483.938 452.393 477.892 455.335 477.243 454.189C476.62 453.044 479.708 449.868 479.708 449.868H479.734Z" fill="#94C3FF"/>
</g>
<path d="M382.614 425.686H244.391C240.162 425.686 238.112 422.224 239.824 417.981L249.659 393.59C251.371 389.347 256.197 385.885 260.427 385.885H398.649C402.879 385.885 404.929 389.321 403.216 393.59L393.382 417.981C391.669 422.224 386.843 425.686 382.588 425.686H382.614Z" fill="#514CED"/>
<path d="M381.522 407.699H262.501L264.836 401.92H383.858L381.522 407.699Z" fill="white"/>
<path d="M270.829 23.9239H266.159C265.328 23.9239 264.939 23.2471 265.277 22.4141L267.171 17.7286C267.508 16.8956 268.442 16.2188 269.273 16.2188H273.943C274.773 16.2188 275.163 16.8956 274.825 17.7286L272.931 22.4141C272.594 23.2471 271.66 23.9239 270.829 23.9239Z" fill="#F9FBFC"/>
<path d="M318.754 23.9239H314.084C313.253 23.9239 312.864 23.2471 313.201 22.4141L315.096 17.7286C315.433 16.8956 316.367 16.2188 317.197 16.2188H321.868C322.698 16.2188 323.087 16.8956 322.75 17.7286L320.856 22.4141C320.519 23.2471 319.585 23.9239 318.754 23.9239Z" fill="#BFD9FF"/>
<path d="M261.907 46.0509H257.236C256.406 46.0509 256.016 45.3741 256.354 44.5411L258.248 39.8555C258.585 39.0225 259.519 38.3457 260.35 38.3457H265.02C265.851 38.3457 266.24 39.0225 265.902 39.8555L264.008 44.5411C263.671 45.3741 262.737 46.0509 261.907 46.0509Z" fill="#BFD9FF"/>
<path d="M285.883 46.0509H281.212C280.382 46.0509 279.993 45.3741 280.33 44.5411L282.224 39.8555C282.562 39.0225 283.496 38.3457 284.326 38.3457H288.997C289.827 38.3457 290.216 39.0225 289.879 39.8555L287.985 44.5411C287.647 45.3741 286.713 46.0509 285.883 46.0509Z" fill="#F9FBFC"/>
<path d="M309.858 46.0509H305.187C304.357 46.0509 303.968 45.3741 304.305 44.5411L306.199 39.8555C306.536 39.0225 307.471 38.3457 308.301 38.3457H312.971C313.802 38.3457 314.191 39.0225 313.854 39.8555L311.959 44.5411C311.622 45.3741 310.688 46.0509 309.858 46.0509Z" fill="#F9FBFC"/>
<path d="M329.032 46.0509H324.361C323.531 46.0509 323.141 45.3741 323.479 44.5411L325.373 39.8555C325.71 39.0225 326.644 38.3457 327.475 38.3457H332.145C332.976 38.3457 333.365 39.0225 333.027 39.8555L331.133 44.5411C330.796 45.3741 329.862 46.0509 329.032 46.0509Z" fill="#F9FBFC"/>
<path d="M253.004 68.1768H248.334C247.503 68.1768 247.114 67.5001 247.451 66.6671L249.346 61.9815C249.683 61.1485 250.617 60.4717 251.447 60.4717H256.118C256.948 60.4717 257.337 61.1485 257 61.9815L255.106 66.6671C254.769 67.5001 253.835 68.1768 253.004 68.1768Z" fill="#F9FBFC"/>
<path d="M233.828 68.1768H229.158C228.328 68.1768 227.938 67.5001 228.276 66.6671L230.17 61.9815C230.507 61.1485 231.441 60.4717 232.272 60.4717H236.942C237.772 60.4717 238.162 61.1485 237.824 61.9815L235.93 66.6671C235.593 67.5001 234.659 68.1768 233.828 68.1768Z" fill="#F9FBFC"/>
<path d="M276.98 68.1768H272.309C271.479 68.1768 271.09 67.5001 271.427 66.6671L273.321 61.9815C273.658 61.1485 274.593 60.4717 275.423 60.4717H280.093C280.924 60.4717 281.313 61.1485 280.976 61.9815L279.082 66.6671C278.744 67.5001 277.81 68.1768 276.98 68.1768Z" fill="#F9FBFC"/>
<path d="M300.932 68.1768H296.261C295.431 68.1768 295.042 67.5001 295.379 66.6671L297.273 61.9815C297.611 61.1485 298.545 60.4717 299.375 60.4717H304.046C304.876 60.4717 305.265 61.1485 304.928 61.9815L303.034 66.6671C302.696 67.5001 301.762 68.1768 300.932 68.1768Z" fill="#BFD9FF"/>
<path d="M244.078 90.3028H239.408C238.577 90.3028 238.188 89.626 238.526 88.793L240.42 84.1075C240.757 83.2745 241.691 82.5977 242.522 82.5977H247.192C248.022 82.5977 248.412 83.2745 248.074 84.1075L246.18 88.793C245.843 89.626 244.909 90.3028 244.078 90.3028Z" fill="#F9FBFC"/>
<path d="M272.726 458.25H266.136C264.968 458.25 264.397 457.313 264.864 456.141L267.537 449.529C268.004 448.358 269.327 447.421 270.495 447.421H277.086C278.253 447.421 278.824 448.358 278.331 449.529L275.658 456.141C275.191 457.313 273.868 458.25 272.7 458.25H272.726Z" fill="#514CED"/>
<path d="M340.293 458.25H333.702C332.534 458.25 331.964 457.313 332.431 456.141L335.103 449.529C335.57 448.358 336.894 447.421 338.061 447.421H344.652C345.82 447.421 346.39 448.358 345.897 449.529L343.225 456.141C342.758 457.313 341.434 458.25 340.267 458.25H340.293Z" fill="#514CED"/>
<path d="M260.164 489.436H253.573C252.406 489.436 251.835 488.499 252.328 487.327L255.001 480.715C255.468 479.544 256.791 478.607 257.959 478.607H264.549C265.717 478.607 266.288 479.544 265.821 480.715L263.148 487.327C262.681 488.499 261.358 489.436 260.19 489.436H260.164Z" fill="#BFD9FF"/>
<path d="M293.948 489.436H287.358C286.19 489.436 285.619 488.499 286.112 487.327L288.785 480.715C289.252 479.544 290.575 478.607 291.743 478.607H298.333C299.501 478.607 300.072 479.544 299.605 480.715L296.932 487.327C296.465 488.499 295.142 489.436 293.974 489.436H293.948Z" fill="#FF8D02"/>
<path d="M327.733 489.436H321.142C319.974 489.436 319.403 488.499 319.896 487.327L322.569 480.715C323.036 479.544 324.359 478.607 325.527 478.607H332.118C333.285 478.607 333.856 479.544 333.389 480.715L330.716 487.327C330.249 488.499 328.926 489.436 327.759 489.436H327.733Z" fill="#BFD9FF"/>
<path d="M354.773 489.436H348.183C347.015 489.436 346.444 488.499 346.911 487.327L349.584 480.715C350.051 479.544 351.374 478.607 352.542 478.607H359.132C360.3 478.607 360.871 479.544 360.378 480.715L357.705 487.327C357.238 488.499 355.915 489.436 354.747 489.436H354.773Z" fill="#BFD9FF"/>
<path d="M247.609 520.621H241.018C239.85 520.621 239.279 519.684 239.772 518.512L242.445 511.901C242.912 510.729 244.235 509.792 245.403 509.792H251.994C253.161 509.792 253.732 510.729 253.265 511.901L250.592 518.512C250.125 519.684 248.802 520.621 247.634 520.621H247.609Z" fill="#BFD9FF"/>
<path d="M220.571 520.621H213.981C212.813 520.621 212.242 519.684 212.735 518.512L215.408 511.901C215.875 510.729 217.198 509.792 218.366 509.792H224.957C226.124 509.792 226.695 510.729 226.228 511.901L223.555 518.512C223.088 519.684 221.765 520.621 220.597 520.621H220.571Z" fill="#BFD9FF"/>
<path d="M281.393 520.621H274.802C273.634 520.621 273.064 519.684 273.557 518.512L276.229 511.901C276.696 510.729 278.02 509.792 279.187 509.792H285.778C286.945 509.792 287.516 510.729 287.023 511.901L284.351 518.512C283.884 519.684 282.56 520.621 281.393 520.621Z" fill="#BFD9FF"/>
<path d="M315.174 520.621H308.583C307.416 520.621 306.845 519.684 307.338 518.512L310.01 511.901C310.477 510.729 311.801 509.792 312.968 509.792H319.559C320.727 509.792 321.298 510.729 320.805 511.901L318.132 518.512C317.665 519.684 316.342 520.621 315.174 520.621Z" fill="#FF8D02"/>
<path d="M235.05 551.806H228.459C227.292 551.806 226.721 550.869 227.214 549.697L229.886 543.086C230.353 541.914 231.677 540.977 232.844 540.977H239.435C240.603 540.977 241.174 541.914 240.681 543.086L238.008 549.697C237.541 550.869 236.218 551.806 235.05 551.806Z" fill="#FF8D02"/>
<path opacity="0.39" d="M387.646 326.922H200.668L231.597 266.322H418.575L387.646 326.922Z" fill="#A1C2FF"/>
<path d="M371.939 312.629C383.453 302.427 386.359 286.854 378.428 277.845C370.498 268.837 354.734 269.804 343.22 280.006C331.705 290.208 328.8 305.781 336.731 314.79C344.661 323.798 360.424 322.831 371.939 312.629Z" fill="#73A5FF"/>
<path d="M351.267 308.907C350.489 308.907 349.788 308.621 349.347 308.022L342.99 299.536C342.108 298.365 342.575 296.438 344.054 295.241C345.533 294.069 347.427 294.069 348.335 295.241L353.084 301.592L370.027 287.978C371.506 286.807 373.401 286.807 374.309 287.978C375.191 289.15 374.724 291.076 373.245 292.273L353.629 308.022C352.902 308.621 352.046 308.907 351.267 308.907Z" fill="white"/>
<path d="M210.243 151.005C210.243 155.769 206.766 159.621 202.485 159.621C198.204 159.621 194.727 155.769 194.727 151.005C194.727 146.241 198.204 142.389 202.485 142.389C206.766 142.389 210.243 146.241 210.243 151.005Z" stroke="#505E83" stroke-width="0.52" stroke-miterlimit="10"/>
<path d="M128.95 197.573C128.95 197.573 116.573 198.406 107.335 210.927C98.098 223.448 111.487 269.393 151.264 287.953C177.16 298.157 179.002 274.963 172.541 258.72C166.055 242.477 147.32 201.4 128.95 197.573Z" fill="white"/>
<path d="M305.729 689.327C305.729 695.21 249.007 700 179.027 700C109.047 700 52.3252 695.21 52.3252 689.327C52.3252 683.444 109.047 678.655 179.027 678.655C249.007 678.655 305.729 683.444 305.729 689.327Z" fill="#BFD9FF"/>
<path d="M132.762 654.782C132.762 654.782 135.46 649.003 145.424 650.539C155.414 652.075 156.556 654.001 157.723 659.025C158.865 664.023 162.342 669.437 164.625 670.583C166.935 671.728 175.368 677.507 182.296 678.678C189.224 679.85 189.976 684.067 188.445 685.993C186.914 687.919 160.811 689.455 155.051 688.7C155.051 688.7 135.46 688.31 130.868 686.774C126.249 685.238 132.399 656.734 132.788 654.808L132.762 654.782Z" fill="#16142A"/>
<path d="M182.79 654.782C182.79 654.782 185.489 649.003 195.453 650.539C205.442 652.075 206.584 654.001 207.752 659.025C208.893 664.023 212.37 669.437 214.654 670.583C216.963 671.728 225.396 677.507 232.324 678.678C239.226 679.824 240.004 684.067 238.474 685.993C236.943 687.919 210.839 689.455 205.079 688.7C205.079 688.7 185.489 688.31 180.896 686.774C176.277 685.238 182.427 656.734 182.816 654.808L182.79 654.782Z" fill="#16142A"/>
<path d="M123.5 511.353C123.5 511.353 120.568 495.396 137.382 490.033C154.17 484.671 157.361 492.454 162.447 507.005C167.533 521.557 158.14 658.948 158.14 658.948C158.14 658.948 137.667 659.417 132.711 656.475C132.711 656.475 119.037 565.289 120.049 543.084C121.061 520.88 123.5 511.3 123.5 511.3V511.353Z" fill="#2B3554"/>
<path d="M202.147 156.862C202.147 156.862 206.065 162.199 206.065 164.984C206.065 167.769 200.746 167.769 200.746 167.769L202.121 156.862H202.147Z" fill="#FF7759"/>
<path d="M183.206 102.536C183.206 102.536 194.571 105.451 201.006 122.944C207.441 140.437 203.16 177.635 198.852 182.008C194.571 186.382 181.519 184.716 163.46 178.729C144.363 172.403 137.902 152.489 134.502 139.344C127.964 114.198 149.76 88.2968 183.206 102.51V102.536Z" fill="#FF8D68"/>
<path d="M142.469 199.136L151.68 165.998C151.68 165.998 170.103 160.61 181.624 172.922L185.464 178.311V199.89C185.464 199.89 166.263 203.743 142.469 199.11V199.136Z" fill="#FF8D68"/>
<path d="M116.751 377.5C116.751 377.5 109.849 417.952 116.751 464.183C123.653 510.414 137.483 515.022 150.146 515.022C162.808 515.022 166.285 478.032 168.568 461.866C170.878 445.675 180.089 390.229 162.808 377.5C145.527 364.797 125.937 363.625 116.725 377.5H116.751Z" fill="#2B3554"/>
<path d="M165.119 431.801C165.119 431.801 151.289 394.81 175.498 378.645C199.682 362.454 218.13 364.771 223.891 391.348C229.651 417.926 230.793 509.217 222.749 527.725C214.679 546.207 185.877 517.312 165.145 431.801H165.119Z" fill="#2B3F63"/>
<path d="M137.59 198.955C137.59 198.955 140.159 189.896 142.468 189.116C144.777 188.335 173.19 185.263 188.551 194.504C195.453 199.892 194.7 203.745 194.7 203.745C194.7 203.745 148.851 194.92 137.616 198.955H137.59Z" fill="white"/>
<path d="M222.024 377.501C222.024 377.501 224.334 383.072 222.958 384.92C221.116 386.768 168.858 405.328 113.823 391.87C112.889 391.87 115.198 382.603 115.198 382.603L222.024 377.501Z" fill="#6060E7"/>
<path d="M113.277 293.889C111.746 283.112 107.127 229.931 108.658 222.252C110.085 215.041 116.235 201.791 128.923 197.574C129.806 197.288 130.74 197.028 131.7 196.819C131.7 196.819 179.313 193.748 213.097 208.377C213.097 208.377 224.67 218.009 226.797 267.129C226.797 267.129 226.175 275.407 224.306 293.056C222.464 310.679 225.241 323.669 228.017 341.318C230.793 358.941 236.346 376.59 216.003 380.286C196.569 384.008 142.935 393.275 111.487 384.008C105 379.375 114.263 358.029 114.263 341.318C114.263 324.606 113.277 293.915 113.277 293.915V293.889Z" fill="#5955D1"/>
<path d="M187.018 513.853C187.018 513.853 185.877 497.662 203.158 494.199C220.439 490.737 222.748 498.833 226.199 513.853C229.65 528.873 209.177 659.887 209.177 659.887C209.177 659.887 186.577 661.188 181.959 657.726C181.959 657.726 176.665 567.008 180.142 545.038C183.593 523.068 187.044 513.827 187.044 513.827L187.018 513.853Z" fill="#2B3F63"/>
<path d="M160.526 423.134C160.526 423.134 176.666 475.144 188.757 500.55" stroke="#2A2E59" stroke-width="0.67" stroke-miterlimit="10"/>
<path d="M193.35 510.961C193.35 510.961 203.132 505.182 212.94 510.961" stroke="#2A2E59" stroke-width="0.67" stroke-miterlimit="10"/>
<path d="M191.612 517.312C191.612 517.312 199.682 512.679 213.486 522.518" stroke="#2A2E59" stroke-width="0.67" stroke-miterlimit="10"/>
<path d="M131.129 504.037C131.129 504.037 137.46 498.258 151.861 504.61" stroke="#2A2E59" stroke-width="0.67" stroke-miterlimit="10"/>
<path d="M135.749 509.817C135.749 509.817 144.96 505.184 153.601 512.134" stroke="#2A2E59" stroke-width="0.67" stroke-miterlimit="10"/>
<path d="M157.05 519.057L153.599 636.926" stroke="#2A2E59" stroke-width="0.67" stroke-miterlimit="10"/>
<path d="M204.665 420.244C204.665 420.244 217.717 427.949 223.088 415.61" stroke="#2A2E59" stroke-width="0.67" stroke-miterlimit="10"/>
<path d="M217.742 421.779C217.742 421.779 223.892 469.546 222.361 501.122" stroke="#2A2E59" stroke-width="0.67" stroke-miterlimit="10"/>
<path d="M178.093 174.379C178.093 174.379 182.115 184.791 195.659 183.047" stroke="#E66657" stroke-width="0.67" stroke-miterlimit="10"/>
<path d="M195.452 110.189C195.452 110.189 202.016 119.248 202.432 124.584C202.847 129.921 194.232 135.283 193.013 138.563C191.793 141.843 194.595 145.982 193.376 148.038C192.156 150.095 191.767 154.312 191.767 154.312L192.182 158.971C192.338 160.663 191.196 162.225 189.51 162.564L188.524 162.772C187.097 163.058 185.695 162.303 185.177 160.95C183.698 157.227 180.662 150.277 178.274 149.678C175.005 148.845 171.71 154.624 170.49 157.488C169.79 159.102 168.051 163.501 166.676 167.015C165.456 170.087 162.602 172.195 159.307 172.429C155.752 172.69 151.497 172.872 149.94 172.429C147.06 171.596 132.373 144.342 131.958 131.196C131.543 118.025 140.573 104.879 149.992 100.766C159.411 96.6531 177.885 92.9567 195.504 110.215L195.452 110.189Z" fill="#7E3636"/>
<path d="M129.026 224.544C129.026 228.24 144.491 284.103 142.026 293.969C139.561 303.834 132.789 372.843 132.789 372.843" stroke="#6060E7" stroke-width="0.67" stroke-miterlimit="10"/>
<path d="M171.84 92.253C171.84 92.253 180.87 92.5914 183.983 88.0881C187.097 83.5587 197.165 82.5174 204.456 89.8322C211.747 97.1469 211.384 110.709 205.157 115.577C205.157 115.577 212.448 114.197 213.486 119.403C214.524 124.636 205.52 132.627 194.752 135.074C194.752 135.074 177.419 130.206 172.203 133.33C166.988 136.454 131.959 132.992 131.959 132.992C131.959 132.992 124.33 126.041 126.406 119.768C128.482 113.494 130.557 120.106 130.557 120.106C130.557 120.106 128.819 111.412 140.262 98.8909C151.705 86.37 167.662 93.3203 171.814 92.2791L171.84 92.253Z" fill="#7E3636"/>
<path d="M342.16 278.791L366.784 279.832C366.784 279.832 366.084 282.279 362.269 282.956C358.455 283.659 344.236 285.403 344.236 285.403L342.16 278.791Z" fill="#EB7754"/>
<path d="M345.274 283.997C345.274 283.997 353.603 282.617 355.341 282.956C357.08 283.294 358.818 293.394 358.818 293.394L352.228 300.344C352.228 300.344 349.789 299.303 352.228 295.477L353.603 293.03L343.535 289.203L345.274 283.971V283.997Z" fill="#FF8D68"/>
<path d="M321.352 289.908L331.756 288.528C331.756 288.528 340.423 279.834 342.161 278.792C343.9 277.751 352.566 291.313 353.604 293.057C353.604 294.437 348.389 298.966 343.199 299.669C337.984 300.372 336.271 298.966 336.271 298.966L324.829 303.496L321.352 289.934V289.908Z" fill="#FF8D68"/>
<path d="M213.123 208.379C213.123 208.379 189.9 208.145 190.575 236.675C191.276 265.205 239.823 311.826 253.005 317.397C266.186 322.967 322.388 307.661 327.241 304.876C332.093 302.091 330.718 290.273 323.089 287.487L265.511 284.702C265.511 284.702 229.418 210.722 213.123 208.379Z" fill="white"/>
<path d="M266.418 289.335C266.418 289.335 273.346 296.754 271.504 306.489" stroke="#A6D0F4" stroke-width="0.53" stroke-miterlimit="10"/>
<path d="M270.131 287.956C270.131 287.956 281.703 291.679 282.612 304.199" stroke="#A6D0F4" stroke-width="0.53" stroke-miterlimit="10"/>
<path d="M210.242 151.005H186.188" stroke="#505E83" stroke-width="0.52" stroke-miterlimit="10"/>
<path d="M189.017 153.895C189.017 153.895 187.382 146.789 181.388 150.069C175.394 153.349 182.478 170.295 187.382 169.202C192.286 168.108 190.107 156.629 189.017 153.895Z" fill="#FF7759"/>
<path d="M138.888 120.443C138.888 120.443 155.546 116.617 167.326 129.138" stroke="#663136" stroke-width="0.53" stroke-miterlimit="10"/>
<path d="M141.092 117.893C141.092 117.893 148.253 110.24 160.526 113.494" stroke="#663136" stroke-width="0.53" stroke-miterlimit="10"/>
<path d="M139.483 123.7C139.483 123.7 144.569 124.169 148.046 129.974" stroke="#663136" stroke-width="0.53" stroke-miterlimit="10"/>
<path d="M189.897 90.5352C189.897 90.5352 206.556 95.7674 202.741 111.074" stroke="#663136" stroke-width="0.53" stroke-miterlimit="10"/>
<defs>
<linearGradient id="paint0_linear_280_167" x1="186.863" y1="295.192" x2="679.996" y2="295.192" gradientUnits="userSpaceOnUse">
<stop stop-color="white" stop-opacity="0.2"/>
<stop offset="1" stop-color="white" stop-opacity="0.7"/>
</linearGradient>
</defs>
</svg>
