<svg width="139" height="40" viewBox="0 0 139 40" fill="none" xmlns="http://www.w3.org/2000/svg">
<rect width="40" height="40" rx="14" fill="url(#paint0_linear_442_533)"/>
<g clip-path="url(#clip0_442_533)">
<path d="M23.6704 8H20.5073V11.1631H23.6704V8Z" fill="white"/>
<path d="M31.9999 16.3422H20.5073V19.5053H31.9999V16.3422Z" fill="white"/>
<path d="M27.8356 12.1643H20.5073V15.341H27.8356V12.1643Z" fill="white"/>
<path d="M31.9993 20.5074H28.8362V23.6705H31.9993V20.5074Z" fill="white"/>
<path d="M23.6704 20.5074H20.5073V32H23.6704V20.5074Z" fill="white"/>
<path d="M27.8347 20.5074H24.6716V27.8357H27.8347V20.5074Z" fill="white"/>
<path d="M19.5054 28.8361H16.3423V31.9992H19.5054V28.8361Z" fill="white"/>
<path d="M19.5062 20.5074H8V23.6705H19.5062V20.5074Z" fill="white"/>
<path d="M19.5053 24.6717H12.1643V27.8348H19.5053V24.6717Z" fill="white"/>
<path d="M11.1631 16.3422H8V19.5053H11.1631V16.3422Z" fill="white"/>
<path d="M19.5054 8H16.3423V19.5062H19.5054V8Z" fill="white"/>
<path d="M15.341 12.1643H12.1643V19.5053H15.341V12.1643Z" fill="white"/>
</g>
<path d="M48.488 29V11.72H52.352L60.776 26.744L59.888 26.96V11.72H62.912V29H59.048L50.624 13.976L51.512 13.76V29H48.488ZM71.4946 29.24C70.1986 29.24 69.0626 28.968 68.0866 28.424C67.1266 27.88 66.3746 27.128 65.8306 26.168C65.3026 25.208 65.0386 24.104 65.0386 22.856C65.0386 21.608 65.3026 20.512 65.8306 19.568C66.3746 18.608 67.1266 17.864 68.0866 17.336C69.0466 16.792 70.1666 16.52 71.4466 16.52C72.6626 16.52 73.7186 16.776 74.6146 17.288C75.5106 17.784 76.2066 18.488 76.7026 19.4C77.1986 20.312 77.4466 21.376 77.4466 22.592C77.4466 22.816 77.4386 23.024 77.4226 23.216C77.4066 23.408 77.3826 23.6 77.3506 23.792H66.9106V21.68H75.0226L74.3986 22.256C74.3986 21.104 74.1346 20.24 73.6066 19.664C73.0786 19.088 72.3426 18.8 71.3986 18.8C70.3746 18.8 69.5586 19.152 68.9506 19.856C68.3586 20.56 68.0626 21.576 68.0626 22.904C68.0626 24.216 68.3586 25.224 68.9506 25.928C69.5586 26.616 70.4146 26.96 71.5186 26.96C72.1586 26.96 72.7186 26.84 73.1986 26.6C73.6786 26.36 74.0306 25.992 74.2546 25.496H77.1106C76.7106 26.648 76.0306 27.56 75.0706 28.232C74.1266 28.904 72.9346 29.24 71.4946 29.24ZM87.1018 29L83.3338 23.528L78.2458 16.76H81.6778L85.0858 21.728L90.5338 29H87.1018ZM83.5738 21.632L87.0058 16.76H90.3658L85.0378 23.744L83.5738 21.632ZM84.7738 23.888L81.0778 29H77.7418L83.3338 21.752L84.7738 23.888ZM92.6677 29V11.72H95.7877V29H92.6677ZM94.1557 29V26.528H104.284V29H94.1557ZM106.288 29V16.76H109.312V29H106.288ZM106.144 14.744V11.408H109.432V14.744H106.144ZM112.522 29V16.76H115.474V19.64H115.546V29H112.522ZM121.114 29V21.272C121.114 20.52 120.922 19.952 120.538 19.568C120.154 19.184 119.594 18.992 118.858 18.992C118.218 18.992 117.642 19.136 117.13 19.424C116.634 19.712 116.242 20.112 115.954 20.624C115.682 21.136 115.546 21.728 115.546 22.4L115.234 19.472C115.65 18.576 116.258 17.864 117.058 17.336C117.858 16.792 118.818 16.52 119.938 16.52C121.266 16.52 122.298 16.896 123.034 17.648C123.786 18.4 124.162 19.4 124.162 20.648V29H121.114ZM127.217 29V11.552H130.241V29H127.217ZM135.113 29L129.545 22.64L134.945 16.76H138.593L132.353 23.192L132.521 22.064L138.833 29H135.113Z" fill="#29294B"/>
<defs>
<linearGradient id="paint0_linear_442_533" x1="16.8553" y1="2.51197e-06" x2="16.8553" y2="40" gradientUnits="userSpaceOnUse">
<stop stop-color="#9895FF"/>
<stop offset="1" stop-color="#514DCC"/>
</linearGradient>
<clipPath id="clip0_442_533">
<rect width="24" height="24" fill="white" transform="translate(8 8)"/>
</clipPath>
</defs>
</svg>
