<?xml version="1.0" encoding="UTF-8" standalone="no"?>
<svg
   width="40"
   height="40"
   viewBox="0 0 45 45"
   fill="none"
   version="1.1"
   id="svg40"
   sodipodi:docname="logo.svg"
   xml:space="preserve"
   inkscape:version="1.2.2 (b0a8486541, 2022-12-01)"
   xmlns:inkscape="http://www.inkscape.org/namespaces/inkscape"
   xmlns:sodipodi="http://sodipodi.sourceforge.net/DTD/sodipodi-0.dtd"
   xmlns="http://www.w3.org/2000/svg"
   xmlns:svg="http://www.w3.org/2000/svg"><sodipodi:namedview
     id="namedview42"
     pagecolor="#ffffff"
     bordercolor="#000000"
     borderopacity="0.25"
     inkscape:showpageshadow="2"
     inkscape:pageopacity="0.0"
     inkscape:pagecheckerboard="0"
     inkscape:deskcolor="#d1d1d1"
     showgrid="false"
     inkscape:zoom="12.767867"
     inkscape:cx="19.697887"
     inkscape:cy="21.264319"
     inkscape:window-width="1540"
     inkscape:window-height="876"
     inkscape:window-x="60"
     inkscape:window-y="0"
     inkscape:window-maximized="1"
     inkscape:current-layer="svg40" /><defs
     id="defs38"><linearGradient
       id="paint0_linear_507_4"
       x1="18.9623"
       y1="2.82597e-06"
       x2="18.9623"
       y2="45"
       gradientUnits="userSpaceOnUse"><stop
         stop-color="#9895FF"
         id="stop30" /><stop
         offset="1"
         stop-color="#514DCC"
         id="stop32" /></linearGradient><clipPath
       id="clip0_507_4"><rect
         width="27"
         height="27"
         fill="white"
         transform="translate(8.99902 8.99854)"
         id="rect35" /></clipPath></defs><path
     style="fill:#000000;stroke-width:0.066029"
     d="M 21.951069,44.262922 C 20.928052,44.063722 19.90431,43.58993 19.214402,42.996412 18.537127,42.413766 3.4816962,26.690861 3.1856602,26.257051 2.5481915,25.322916 2.261212,24.384956 2.2628711,23.241009 c 0.00118,-0.893379 0.1449731,-1.53304 0.5058755,-2.252156 0.4972272,-0.990774 0.5377913,-1.033849 3.5977442,-3.821089 2.3403425,-2.131758 2.5447676,-2.30221 2.5962128,-2.164639 0.030741,0.08215 1.2144984,3.358345 2.6306254,7.280478 1.416134,3.922103 2.672759,7.339107 2.792495,7.593325 0.284695,0.604441 0.657427,1.014128 1.172252,1.288545 0.78222,0.416953 1.820379,0.329911 2.639408,-0.221282 0.170676,-0.114876 4.77484,-3.625847 10.231471,-7.802187 5.456622,-4.176327 9.939215,-7.60114 9.961293,-7.610693 0.0601,-0.02618 4.947837,5.093539 5.205375,5.452211 0.33311,0.463905 0.65422,1.133358 0.820275,1.710052 0.194795,0.676485 0.208254,2.005106 0.02674,2.660386 -0.155202,0.561107 -0.552137,1.395835 -0.874443,1.839013 -0.24344,0.334771 -16.792443,15.533574 -17.457538,16.033247 -0.396793,0.298087 -1.390896,0.780181 -1.881823,0.912589 -0.39043,0.10529 -1.940884,0.189774 -2.278001,0.124112 z M 18.814161,21.441731 c -0.01622,-0.04544 -0.977221,-2.70653 -2.13568,-5.913616 L 14.57221,9.6970466 14.910688,9.3804512 c 1.051776,-0.983823 5.290353,-4.8363728 5.65379,-5.1388412 0.473801,-0.3943099 1.401084,-0.8738702 2.013883,-1.0414927 0.220179,-0.060242 0.777478,-0.123935 1.25456,-0.1434071 0.730308,-0.029819 0.947033,-0.014046 1.452627,0.1063998 0.669228,0.1592449 1.618518,0.5987802 2.11293,0.978245 0.371911,0.285425 6.05162,6.163262 6.025468,6.235642 -0.01786,0.04904 -14.507164,11.147289 -14.55349,11.147289 -0.01518,0 -0.04017,-0.03708 -0.05625,-0.0825 z"
     id="path6730" /><path
     style="fill:#24ab24;stroke-width:0.066029"
     d="M 20.215809,42.490802 C 19.192799,42.291618 18.169059,41.817822 17.479146,41.2243 16.801868,40.641635 1.7464388,24.918747 1.4504053,24.484938 0.81293546,23.55079 0.52596214,22.612858 0.52761872,21.46889 c 9.4732e-4,-0.893379 0.14497319,-1.53304 0.50587538,-2.252159 0.4972222,-0.990763 0.5377851,-1.033846 3.5977405,-3.821082 2.340344,-2.131763 2.5447665,-2.30221 2.5962175,-2.164638 0.030739,0.08213 1.2144916,3.358334 2.6306247,7.28046 1.4161272,3.922128 2.6727512,7.33912 2.7924942,7.593326 0.284697,0.604454 0.657429,1.014144 1.172245,1.288561 0.78222,0.416941 1.820385,0.329901 2.639415,-0.221358 0.170675,-0.114877 4.774842,-3.625859 10.231469,-7.802199 5.456621,-4.176323 9.939214,-7.60114 9.961294,-7.610682 0.0601,-0.02618 4.947835,5.093534 5.205368,5.452187 0.333109,0.463927 0.654226,1.133381 0.82028,1.710063 0.194791,0.676487 0.208259,2.005112 0.02674,2.660405 -0.155201,0.561108 -0.552118,1.395833 -0.874432,1.839006 -0.24345,0.334766 -16.792453,15.533575 -17.457536,16.033242 -0.396755,0.298087 -1.390902,0.780192 -1.881837,0.912577 -0.390428,0.105312 -1.940878,0.189786 -2.277997,0.124124 z M 17.078912,19.669595 c -0.01622,-0.04533 -0.977233,-2.706509 -2.135677,-5.9136 l -2.106278,-5.8310701 0.33844,-0.3165844 c 1.051768,-0.983833 5.290347,-4.8363827 5.653787,-5.1388498 0.473803,-0.3943123 1.401085,-0.8738651 2.013886,-1.0415001 0.22018,-0.060242 0.777479,-0.1239351 1.254552,-0.1433884 0.730306,-0.029831 0.947032,-0.014097 1.452637,0.1063868 0.669217,0.1592538 1.618514,0.5987827 2.11293,0.9782425 0.371905,0.285425 6.051625,6.1632737 6.025461,6.2356487 -0.01786,0.049031 -14.507164,11.1472878 -14.553491,11.1472878 -0.01517,0 -0.04016,-0.03708 -0.05625,-0.08256 z"
     id="path6732" /></svg>
