<svg width="142" height="40" viewBox="0 0 142 40" fill="none" xmlns="http://www.w3.org/2000/svg">
<path d="M51.488 29V11.72H55.352L63.776 26.744L62.888 26.96V11.72H65.912V29H62.048L53.624 13.976L54.512 13.76V29H51.488ZM74.4946 29.24C73.1986 29.24 72.0626 28.968 71.0866 28.424C70.1266 27.88 69.3746 27.128 68.8306 26.168C68.3026 25.208 68.0386 24.104 68.0386 22.856C68.0386 21.608 68.3026 20.512 68.8306 19.568C69.3746 18.608 70.1266 17.864 71.0866 17.336C72.0466 16.792 73.1666 16.52 74.4466 16.52C75.6626 16.52 76.7186 16.776 77.6146 17.288C78.5106 17.784 79.2066 18.488 79.7026 19.4C80.1986 20.312 80.4466 21.376 80.4466 22.592C80.4466 22.816 80.4386 23.024 80.4226 23.216C80.4066 23.408 80.3826 23.6 80.3506 23.792H69.9106V21.68H78.0226L77.3986 22.256C77.3986 21.104 77.1346 20.24 76.6066 19.664C76.0786 19.088 75.3426 18.8 74.3986 18.8C73.3746 18.8 72.5586 19.152 71.9506 19.856C71.3586 20.56 71.0626 21.576 71.0626 22.904C71.0626 24.216 71.3586 25.224 71.9506 25.928C72.5586 26.616 73.4146 26.96 74.5186 26.96C75.1586 26.96 75.7186 26.84 76.1986 26.6C76.6786 26.36 77.0306 25.992 77.2546 25.496H80.1106C79.7106 26.648 79.0306 27.56 78.0706 28.232C77.1266 28.904 75.9346 29.24 74.4946 29.24ZM90.1018 29L86.3338 23.528L81.2458 16.76H84.6778L88.0858 21.728L93.5338 29H90.1018ZM86.5738 21.632L90.0058 16.76H93.3658L88.0378 23.744L86.5738 21.632ZM87.7738 23.888L84.0778 29H80.7418L86.3338 21.752L87.7738 23.888ZM95.6677 29V11.72H98.7877V29H95.6677ZM97.1557 29V26.528H107.284V29H97.1557ZM109.288 29V16.76H112.312V29H109.288ZM109.144 14.744V11.408H112.432V14.744H109.144ZM115.522 29V16.76H118.474V19.64H118.546V29H115.522ZM124.114 29V21.272C124.114 20.52 123.922 19.952 123.538 19.568C123.154 19.184 122.594 18.992 121.858 18.992C121.218 18.992 120.642 19.136 120.13 19.424C119.634 19.712 119.242 20.112 118.954 20.624C118.682 21.136 118.546 21.728 118.546 22.4L118.234 19.472C118.65 18.576 119.258 17.864 120.058 17.336C120.858 16.792 121.818 16.52 122.938 16.52C124.266 16.52 125.298 16.896 126.034 17.648C126.786 18.4 127.162 19.4 127.162 20.648V29H124.114ZM130.217 29V11.552H133.241V29H130.217ZM138.113 29L132.545 22.64L137.945 16.76H141.593L135.353 23.192L135.521 22.064L141.833 29H138.113Z" fill="white"/>
<rect width="40" height="40" rx="14" fill="white"/>
<g clip-path="url(#clip0_442_515)">
<path d="M23.6704 8H20.5073V11.1631H23.6704V8Z" fill="#5955D1"/>
<path d="M31.9999 16.3422H20.5073V19.5053H31.9999V16.3422Z" fill="#5955D1"/>
<path d="M27.8356 12.1643H20.5073V15.341H27.8356V12.1643Z" fill="#5955D1"/>
<path d="M31.9993 20.5074H28.8362V23.6705H31.9993V20.5074Z" fill="#5955D1"/>
<path d="M23.6704 20.5074H20.5073V32H23.6704V20.5074Z" fill="#5955D1"/>
<path d="M27.8347 20.5074H24.6716V27.8357H27.8347V20.5074Z" fill="#5955D1"/>
<path d="M19.5054 28.8361H16.3423V31.9992H19.5054V28.8361Z" fill="#5955D1"/>
<path d="M19.5062 20.5074H8V23.6705H19.5062V20.5074Z" fill="#5955D1"/>
<path d="M19.5053 24.6717H12.1643V27.8348H19.5053V24.6717Z" fill="#5955D1"/>
<path d="M11.1631 16.3422H8V19.5053H11.1631V16.3422Z" fill="#5955D1"/>
<path d="M19.5054 8H16.3423V19.5062H19.5054V8Z" fill="#5955D1"/>
<path d="M15.341 12.1643H12.1643V19.5053H15.341V12.1643Z" fill="#5955D1"/>
</g>
<defs>
<clipPath id="clip0_442_515">
<rect width="24" height="24" fill="white" transform="translate(8 8)"/>
</clipPath>
</defs>
</svg>
