<?xml version="1.0" encoding="UTF-8" standalone="no"?>
<svg
   width="40"
   height="40"
   viewBox="0 0 45 45"
   fill="none"
   version="1.1"
   id="svg40"
   sodipodi:docname="logo_rombo.svg"
   xml:space="preserve"
   inkscape:version="1.2.2 (b0a8486541, 2022-12-01)"
   xmlns:inkscape="http://www.inkscape.org/namespaces/inkscape"
   xmlns:sodipodi="http://sodipodi.sourceforge.net/DTD/sodipodi-0.dtd"
   xmlns="http://www.w3.org/2000/svg"
   xmlns:svg="http://www.w3.org/2000/svg"><sodipodi:namedview
     id="namedview42"
     pagecolor="#ffffff"
     bordercolor="#000000"
     borderopacity="0.25"
     inkscape:showpageshadow="2"
     inkscape:pageopacity="0.0"
     inkscape:pagecheckerboard="0"
     inkscape:deskcolor="#d1d1d1"
     showgrid="false"
     inkscape:zoom="5.027555"
     inkscape:cx="81.252219"
     inkscape:cy="-12.829298"
     inkscape:window-width="1540"
     inkscape:window-height="876"
     inkscape:window-x="60"
     inkscape:window-y="0"
     inkscape:window-maximized="1"
     inkscape:current-layer="svg40" /><defs
     id="defs38"><rect
       x="50.946808"
       y="-83.213074"
       width="80.599044"
       height="135.65612"
       id="rect2496" /><rect
       x="145.46201"
       y="46.3769"
       width="85.843202"
       height="256.44492"
       id="rect2490" /><linearGradient
       id="paint0_linear_507_4"
       x1="18.9623"
       y1="2.82597e-06"
       x2="18.9623"
       y2="45"
       gradientUnits="userSpaceOnUse"><stop
         stop-color="#9895FF"
         id="stop30" /><stop
         offset="1"
         stop-color="#514DCC"
         id="stop32" /></linearGradient><clipPath
       id="clip0_507_4"><rect
         width="27"
         height="27"
         fill="white"
         transform="translate(8.99902 8.99854)"
         id="rect35" /></clipPath></defs><path
     style="fill:#000080;stroke-width:0.16584"
     d="m 20.743443,42.985903 c -0.319247,-0.0886 -0.764951,-0.201496 -0.99046,-0.250868 C 18.854004,42.53822 17.287534,41.539518 16.265752,40.51175 15.386901,39.627751 14.784329,38.723281 13.003488,35.615032 11.802116,33.518186 8.790695,28.295064 6.3114321,24.00809 3.8321625,19.721115 1.6302463,15.872436 1.4182754,15.455471 -0.17162324,12.327967 0.39976573,8.4450216 2.8405048,5.7906119 L 3.5969202,4.9679767 5.3477366,7.9373396 C 14.248159,23.032297 14.347393,23.179487 16.213315,24.053701 c 0.858144,0.402054 1.156675,0.451909 2.705882,0.451909 2.231816,0 2.38844,-0.0744 6.301941,-2.993682 1.687423,-1.258742 4.821808,-3.594983 6.965298,-5.191644 2.143486,-1.596669 5.477563,-4.083804 7.409053,-5.526976 1.9315,-1.4431709 3.622546,-2.6664363 3.757888,-2.718373 0.218652,-0.083902 0.437719,0.2337771 0.438007,0.6351721 4.5e-5,0.068844 0.120272,0.4046729 0.267167,0.7462841 0.175672,0.4085351 0.271017,1.1319358 0.278581,2.1136698 0.01096,1.424143 -0.121555,2.094836 -0.671764,3.39973 -0.25882,0.613823 -3.667981,6.657944 -3.835209,6.799457 -0.0539,0.04563 -0.251844,0.381431 -0.439889,0.746278 -0.188046,0.364853 -0.864179,1.558903 -1.502523,2.65345 -0.638338,1.094546 -1.268081,2.176651 -1.399422,2.40468 -0.131336,0.228037 -0.313429,0.469434 -0.40464,0.536444 -0.110563,0.08123 -0.110563,0.124446 0,0.129654 0.09121,0.0043 0.021,0.117381 -0.15608,0.251304 -0.177051,0.133914 -0.266119,0.243486 -0.197924,0.243486 0.0682,0 -0.0083,0.223878 -0.1699,0.49752 -0.161637,0.273636 -0.356837,0.497521 -0.433765,0.497521 -0.07693,0 -0.09897,0.06617 -0.04901,0.147047 0.04996,0.08087 -0.02025,0.239273 -0.156054,0.351991 -0.135814,0.112711 -0.246936,0.270815 -0.246936,0.351333 0,0.137658 -2.066114,3.7885 -2.69244,4.757573 -0.158267,0.244879 -0.362385,0.615065 -0.453584,0.822642 -0.0912,0.207577 -0.31361,0.536044 -0.494249,0.729931 -0.180629,0.193894 -0.296273,0.404555 -0.256975,0.468137 0.03931,0.06359 -0.05659,0.260423 -0.213034,0.437424 -0.156469,0.176995 -0.307708,0.430837 -0.336096,0.564093 -0.124509,0.584528 -1.490214,2.249893 -2.442684,2.978652 -0.653511,0.500023 -1.237182,0.833668 -1.239655,0.708646 -0.0013,-0.07051 -0.05741,-0.042 -0.124463,0.06339 -0.423938,0.666206 -4.285784,1.261701 -5.677415,0.875455 z M 18.587514,17.745172 C 18.299381,17.6028 16.870526,15.365162 13.9031,10.409182 11.554699,6.4870544 9.6330237,3.2196365 9.6327112,3.1482502 9.6323793,3.0768688 15.882247,3.0431044 23.521273,3.0732129 c 10.989441,0.043311 14.037651,0.1009526 14.600498,0.276005 0.391252,0.121686 0.689764,0.2830678 0.663359,0.3586163 -0.0264,0.075558 -1.727225,1.390376 -3.779606,2.9218325 C 19.307322,18.34341 19.841913,17.960474 19.198623,17.95247 19.090545,17.95117 18.815549,17.85784 18.587514,17.745169 Z"
     id="path810" /><path
     style="fill:#00a1ff;stroke-width:0.15395;fill-opacity:1"
     d="M 19.000186,40.381219 C 18.708467,40.29766 18.301193,40.191192 18.095133,40.144627 17.273664,39.95902 15.842263,39.01718 14.908591,38.047924 14.105518,37.214258 13.5549,36.361286 11.927613,33.430002 10.829833,31.452541 8.0780692,26.526797 5.8125821,22.483898 3.5470892,18.440999 1.5350284,14.811442 1.3413368,14.418221 -0.11146993,11.468777 0.41064754,7.8069094 2.6409339,5.3036276 L 3.3321279,4.5278273 4.9319814,7.3281291 C 13.064964,21.563658 13.155643,21.702469 14.860672,22.526914 c 0.78415,0.379163 1.056939,0.426179 2.472568,0.426179 2.039376,0 2.182493,-0.07017 5.758554,-2.823236 1.541923,-1.187081 4.406046,-3.390308 6.364709,-4.896066 1.958663,-1.505757 5.005259,-3.851292 6.770203,-5.212297 1.764957,-1.3610047 3.310191,-2.51462 3.433866,-2.5636041 0.199797,-0.079127 0.399972,0.2204692 0.400234,0.5990117 4.3e-5,0.064928 0.109906,0.381632 0.244132,0.7037937 0.160524,0.3852745 0.247649,1.0674878 0.254561,1.9933317 0.01001,1.343059 -0.111075,1.975561 -0.613841,3.20616 -0.236504,0.57888 -3.351709,6.278884 -3.504518,6.412335 -0.04926,0.04306 -0.230129,0.359719 -0.401958,0.703788 -0.171828,0.344081 -0.789665,1.470149 -1.372965,2.502379 -0.583297,1.032229 -1.158742,2.052727 -1.278754,2.267769 -0.120016,0.215054 -0.286411,0.442707 -0.369756,0.505907 -0.101029,0.0766 -0.101029,0.117355 0,0.12227 0.08334,0.0043 0.01919,0.110698 -0.142623,0.236992 -0.161781,0.126293 -0.243171,0.229628 -0.180856,0.229628 0.0623,0 -0.0076,0.21113 -0.15525,0.469189 -0.1477,0.25806 -0.326067,0.469196 -0.396364,0.469196 -0.0703,0 -0.09044,0.06243 -0.04475,0.13868 0.04563,0.07627 -0.0185,0.225647 -0.142603,0.331945 -0.1241,0.106293 -0.225642,0.255396 -0.225642,0.331332 0,0.129823 -1.887959,3.5728 -2.460282,4.486704 -0.144623,0.230936 -0.33114,0.580045 -0.41447,0.775805 -0.08334,0.195757 -0.286573,0.505521 -0.451634,0.68837 -0.165055,0.182856 -0.270733,0.381526 -0.234818,0.441485 0.03592,0.05999 -0.05171,0.2456 -0.194672,0.412522 -0.142972,0.166916 -0.281175,0.406303 -0.30711,0.531975 -0.113771,0.551245 -1.361721,2.121794 -2.232061,2.809065 -0.597163,0.471553 -1.130504,0.7862 -1.132768,0.668299 -0.0013,-0.0665 -0.05246,-0.03961 -0.113734,0.0598 -0.387378,0.628271 -3.916241,1.189863 -5.18787,0.825613 z M 17.030152,16.57756 C 16.766865,16.443292 15.461213,14.333051 12.749653,9.659236 10.603746,5.9604177 8.8477712,2.8790284 8.8474827,2.8117032 8.8471885,2.7443925 14.558148,2.7125438 21.538492,2.7409488 c 10.04188,0.040871 12.827252,0.095207 13.341565,0.2602904 0.357519,0.1147611 0.630294,0.266954 0.606163,0.3381955 -0.02413,0.071256 -1.578296,1.3112188 -3.45371,2.755481 C 17.687896,17.141734 18.176391,16.780604 17.588574,16.773057 c -0.09877,-0.0013 -0.350049,-0.08925 -0.558422,-0.195497 z"
     id="path822" /><rect
     style="fill:#ffffff;fill-opacity:1;stroke:#828282;stroke-width:1.125"
     id="rect1085"
     width="76.103394"
     height="52.2393"
     x="60.08857"
     y="-1.1385303" /><rect
     style="fill:#ffffff;fill-opacity:1;stroke:none;stroke-width:2.97681;stroke-opacity:1"
     id="rect1573"
     width="67.002045"
     height="110.36288"
     x="70.578903"
     y="-79.398224"
     ry="20.971191" /><rect
     style="fill:#008000;fill-opacity:1;stroke:#008000;stroke-width:1.89172;stroke-opacity:1"
     id="rect1467"
     width="34.987549"
     height="34.987549"
     x="68.057335"
     y="43.264797"
     ry="8.4514971"
     transform="rotate(-45.821466)" /><rect
     style="fill:#ffffff;fill-opacity:1;stroke:#ffffff;stroke-width:0.963214;stroke-opacity:1"
     id="rect1629"
     width="36.835014"
     height="7.4811182"
     x="107.94221"
     y="-17.704157"
     ry="3.7405591" /><rect
     style="fill:none;fill-opacity:1;stroke:#ffffff;stroke-width:6.99395;stroke-dasharray:none;stroke-opacity:1"
     id="rect1631"
     width="31.330357"
     height="31.148031"
     x="96.574944"
     y="14.790126"
     ry="0.14355688"
     transform="matrix(0.79904749,-0.60126791,0.42609345,0.90467915,0,0)" /><text
     xml:space="preserve"
     style="font-size:9px;font-family:Anybody;-inkscape-font-specification:Anybody;text-align:center;text-anchor:middle;fill:#000000;stroke:none;stroke-width:4.48583;stroke-opacity:1"
     x="126.97842"
     y="-10.973586"
     id="text2334"><tspan
       sodipodi:role="line"
       id="tspan2332"
       style="font-style:italic;font-variant:normal;font-weight:800;font-stretch:normal;font-size:9px;font-family:'Montserrat Alternates';-inkscape-font-specification:'Montserrat Alternates Ultra-Bold Italic';stroke:none;stroke-width:4.48583;stroke-opacity:1"
       x="126.97842"
       y="-10.973586">erificar IT</tspan></text><text
     xml:space="preserve"
     transform="scale(1.125)"
     id="text2488"
     style="fill:#000000;-inkscape-font-specification:'Montserrat Alternates Ultra-Bold Italic';font-family:'Montserrat Alternates';font-size:16px;text-align:center;stroke:none;stroke-width:3.98740157;stroke-opacity:1;font-weight:800;font-style:italic;font-stretch:normal;font-variant:normal;white-space:pre;shape-inside:url(#rect2490)" /><text
     xml:space="preserve"
     transform="scale(1.125)"
     id="text2494"
     style="font-style:italic;font-variant:normal;font-weight:800;font-stretch:normal;font-size:16px;font-family:'Montserrat Alternates';-inkscape-font-specification:'Montserrat Alternates Ultra-Bold Italic';text-align:center;white-space:pre;shape-inside:url(#rect2496);fill:#000000;stroke:none;stroke-width:3.9874;stroke-opacity:1" /></svg>
