<svg width="700" height="650" viewBox="0 0 700 650" fill="none" xmlns="http://www.w3.org/2000/svg">
<g clip-path="url(#clip0_277_173)">
<path d="M259.858 425.923C259.858 425.923 175.099 388.078 104.961 393.612C41.4416 398.651 31.2913 407.742 0.0253906 403.715C8.10117 423.897 42.4047 490.52 113.037 514.753C183.669 538.987 252.301 526.858 278.529 506.676C304.757 486.494 276.01 434 259.858 425.923Z" fill="#218498"/>
<path d="M26.748 416.857C26.748 416.857 147.835 469.844 256.821 459.247" stroke="white" stroke-width="1.23" stroke-miterlimit="10"/>
<path d="M55.4941 459.246L99.0095 441.831" stroke="white" stroke-width="1.23" stroke-miterlimit="10"/>
<path d="M126.273 418.734C126.273 419.871 147.834 452.429 147.834 452.429" stroke="white" stroke-width="1.23" stroke-miterlimit="10"/>
<path d="M409.494 431.654C409.494 431.654 435.45 364.734 476.99 329.607C514.602 297.79 525.123 297.272 540.114 278.028C546.659 293.517 564.07 348.777 538.435 400.529C512.824 452.281 468.543 482.961 443.155 486.173C417.767 489.359 404.999 444.895 409.494 431.654Z" fill="#218498"/>
<path d="M532.581 299.791C532.581 299.791 494.894 394.797 429.275 448.303" stroke="white" stroke-width="0.95" stroke-miterlimit="10"/>
<path d="M539.842 338.723L506.477 352.853" stroke="white" stroke-width="0.95" stroke-miterlimit="10"/>
<path d="M478.941 355.002C479.559 355.62 485.412 385.238 485.412 385.238" stroke="white" stroke-width="0.95" stroke-miterlimit="10"/>
<path d="M304.757 448.13C304.757 448.13 284.58 339.117 213.947 288.65C143.315 238.182 94.8605 238.182 52.4812 211.948C52.4812 211.948 48.4556 254.338 76.7085 318.935C104.961 383.533 139.265 436.026 203.847 464.285C268.428 492.545 304.757 448.13 304.757 448.13Z" fill="#8182EE"/>
<path d="M70.6328 236.182C70.6328 236.182 187.695 375.48 260.352 438.051" stroke="white" stroke-width="1.23" stroke-miterlimit="10"/>
<path d="M85.7715 305.818L135.214 311.87" stroke="white" stroke-width="1.23" stroke-miterlimit="10"/>
<path d="M183.67 292.701L170.531 348.208" stroke="white" stroke-width="1.23" stroke-miterlimit="10"/>
<path d="M156.404 401.714L217.973 398.675" stroke="white" stroke-width="1.23" stroke-miterlimit="10"/>
<path d="M446.439 472.265C446.439 472.265 489.634 393.76 556.636 373.01C623.662 352.259 660.806 364.561 699.999 355.224C699.999 355.224 692.319 388.77 654.237 431.135C616.154 473.5 576.492 505.045 519.764 510.307C463.036 515.568 446.464 472.265 446.464 472.265H446.439Z" fill="#8182EE"/>
<path d="M679.922 369.181C679.922 369.181 554.735 446.278 483.09 475.797" stroke="white" stroke-width="0.99" stroke-miterlimit="10"/>
<path d="M650.607 418.759L611.117 410.829" stroke="white" stroke-width="0.99" stroke-miterlimit="10"/>
<path d="M578.837 383.805L574.787 429.727" stroke="white" stroke-width="0.99" stroke-miterlimit="10"/>
<path d="M572.046 474.364L525.592 456.381" stroke="white" stroke-width="0.99" stroke-miterlimit="10"/>
<path d="M507.711 539.876C528.752 552.029 528.851 571.717 507.958 583.871L409.863 640.885C388.97 653.038 354.962 653.038 333.946 640.885L235.209 583.871C214.167 571.717 214.068 552.029 234.962 539.876L333.057 482.862C353.95 470.708 387.957 470.708 408.974 482.862L507.711 539.876Z" fill="url(#paint0_linear_277_173)"/>
<path d="M507.711 513.592C528.752 525.746 528.851 545.433 507.958 557.587L409.863 614.601C388.97 626.755 354.962 626.755 333.946 614.601L235.209 557.587C214.167 545.433 214.068 525.746 234.962 513.592L333.057 456.578C353.95 444.424 387.957 444.424 408.974 456.578L507.711 513.592Z" stroke="#94C3FF" stroke-width="0.93" stroke-miterlimit="10"/>
<path d="M542.706 478.341L419.643 549.88C393.415 565.122 350.789 565.122 324.388 549.88L200.51 478.341C187.224 470.683 180.605 460.605 180.63 450.551L180.58 464.779C180.555 474.833 187.174 484.887 200.461 492.57L324.339 564.109C350.74 579.35 393.366 579.35 419.594 564.109L542.657 492.57C555.672 485.011 562.192 475.08 562.241 465.175L562.291 450.946C562.266 460.876 555.746 470.782 542.706 478.341Z" fill="#A6D0F4"/>
<path d="M542.385 423.155C568.786 438.397 568.909 463.1 542.706 478.341L419.643 549.88C393.415 565.121 350.789 565.121 324.388 549.88L200.51 478.341C174.11 463.1 173.986 438.397 200.189 423.155L323.252 351.617C349.48 336.375 392.106 336.375 418.507 351.617L542.385 423.155Z" fill="url(#paint1_linear_277_173)"/>
<path d="M565.774 82.0124L428.831 2.91462C422.904 -0.494341 417.545 -0.815475 413.668 1.43246L402.332 8.02806C406.209 5.78012 411.569 6.10126 417.496 9.51022L554.438 88.5833C566.194 95.3765 575.702 111.828 575.677 125.366L575.554 172.572C575.554 179.291 573.158 184.01 569.33 186.233L580.666 179.637C584.494 177.414 586.865 172.696 586.89 165.977L587.013 118.77C587.062 105.233 577.53 88.7809 565.774 81.9877V82.0124Z" fill="#C7D8F2"/>
<path d="M554.438 88.6083C566.194 95.4015 575.702 111.853 575.677 125.39L575.554 172.597C575.505 186.134 565.922 191.569 554.191 184.776L417.249 105.702C405.469 98.9093 395.985 82.4573 396.01 68.9203L396.133 21.7136C396.183 8.17653 405.74 2.74195 417.496 9.53517L554.438 88.6083Z" fill="#EAF1F7"/>
<path d="M565.774 207.501L428.831 128.428C422.904 125.019 417.545 124.698 413.668 126.946L402.332 133.542C406.209 131.294 411.569 131.615 417.496 135.024L554.438 214.097C566.194 220.89 575.702 237.342 575.677 250.879L575.554 298.086C575.554 304.805 573.158 309.523 569.33 311.746L580.666 305.151C584.494 302.928 586.865 298.209 586.89 291.49L587.013 244.284C587.062 230.747 577.53 214.295 565.774 207.501Z" fill="#94C3FF"/>
<path d="M554.438 214.097C566.194 220.89 575.702 237.342 575.677 250.879L575.554 298.085C575.505 311.622 565.922 317.057 554.191 310.264L417.249 231.191C405.469 224.398 395.985 207.946 396.01 194.409L396.133 147.202C396.183 133.665 405.74 128.23 417.496 135.023L554.438 214.097Z" fill="#8182EE"/>
<path d="M550.388 162.567C550.388 162.567 550.24 162.691 550.166 162.74C550.24 162.691 550.314 162.617 550.388 162.567Z" fill="#A6D0F4"/>
<path d="M520.925 155.873C520.925 155.873 520.752 155.725 520.678 155.626C520.752 155.7 520.851 155.774 520.925 155.873Z" fill="#A6D0F4"/>
<path d="M530.925 162.864C530.925 162.864 530.827 162.815 530.803 162.79C530.852 162.79 530.901 162.839 530.925 162.864Z" fill="#A6D0F4"/>
<path d="M531.717 163.234C531.594 163.185 531.47 163.111 531.322 163.062C531.446 163.111 531.569 163.185 531.717 163.234Z" fill="#A6D0F4"/>
<path d="M548.535 163.803C548.535 163.803 548.387 163.877 548.312 163.926C548.387 163.877 548.461 163.852 548.535 163.803Z" fill="#A6D0F4"/>
<path d="M512.996 146.98C512.897 146.856 512.799 146.708 512.725 146.585C512.823 146.708 512.922 146.856 512.996 146.98Z" fill="#A6D0F4"/>
<path d="M529.345 162.049C529.345 162.049 529.247 162 529.222 161.975C529.098 161.901 528.95 161.827 528.827 161.753C528.703 161.679 528.58 161.604 528.432 161.53C528.382 161.506 528.357 161.481 528.308 161.456C528.209 161.407 528.135 161.357 528.036 161.308C527.987 161.283 527.938 161.234 527.888 161.209C527.814 161.16 527.74 161.11 527.641 161.061C527.592 161.036 527.543 160.987 527.493 160.962C527.419 160.913 527.345 160.863 527.271 160.814C527.221 160.789 527.172 160.74 527.123 160.715C527.049 160.666 526.975 160.616 526.9 160.567C526.851 160.542 526.802 160.493 526.752 160.468C526.678 160.419 526.579 160.369 526.505 160.295C526.456 160.271 526.406 160.221 526.357 160.196C526.258 160.122 526.16 160.073 526.085 159.999C525.863 159.851 525.74 159.752 525.616 159.653C525.468 159.554 525.345 159.455 525.246 159.381C525.196 159.357 525.172 159.332 525.122 159.282C525.048 159.233 524.949 159.159 524.875 159.11C524.826 159.085 524.777 159.035 524.727 159.011C524.653 158.961 524.579 158.887 524.48 158.838C524.431 158.813 524.381 158.764 524.332 158.739C524.258 158.69 524.184 158.615 524.085 158.566C524.036 158.541 523.986 158.492 523.937 158.467C523.863 158.418 523.789 158.344 523.69 158.27C523.64 158.245 523.591 158.196 523.566 158.171C523.492 158.097 523.393 158.023 523.319 157.973C523.295 157.948 523.245 157.924 523.196 157.874C523.097 157.776 522.974 157.701 522.875 157.603C522.702 157.454 522.579 157.356 522.455 157.257C522.307 157.133 522.208 157.034 522.085 156.936C521.887 156.763 521.813 156.689 521.714 156.615C521.665 156.59 521.64 156.54 521.591 156.516C521.517 156.442 521.418 156.368 521.344 156.293C521.294 156.269 521.27 156.219 521.22 156.17C521.146 156.096 521.047 156.022 520.973 155.948C520.924 155.923 520.899 155.873 520.85 155.849C520.776 155.775 520.677 155.701 520.603 155.602C520.405 155.429 520.306 155.33 520.208 155.231C519.911 154.935 519.664 154.712 519.417 154.49C519.294 154.367 519.17 154.243 519.072 154.144C518.899 153.971 518.825 153.897 518.726 153.798C518.553 153.626 518.454 153.527 518.38 153.453C518.207 153.28 518.108 153.181 518.034 153.082C517.861 152.909 517.763 152.786 517.664 152.687C517.269 152.267 516.923 151.872 516.577 151.501C516.454 151.378 516.355 151.254 516.256 151.131C516.108 150.958 516.009 150.859 515.935 150.735C515.787 150.562 515.688 150.439 515.614 150.34C515.466 150.167 515.367 150.044 515.268 149.945C515.12 149.747 515.021 149.624 514.923 149.5C514.478 148.932 514.033 148.389 513.614 147.845C513.49 147.672 513.391 147.549 513.293 147.425C513.169 147.252 513.07 147.129 512.972 147.005C512.848 146.832 512.749 146.684 512.65 146.561C512.132 145.82 511.613 145.103 511.144 144.362C511.045 144.189 510.946 144.066 510.848 143.917C510.724 143.744 510.65 143.596 510.551 143.473C509.959 142.559 509.415 141.645 508.897 140.731C508.798 140.558 508.724 140.41 508.625 140.286C508.526 140.113 508.452 139.965 508.353 139.817C507.909 139.026 507.489 138.236 507.094 137.445C511.687 136.581 521.097 136.383 521.591 136.358C521.591 136.358 521.739 136.63 522.035 137.05C523.048 138.557 525.69 142.164 529.247 144.214C531.445 145.474 533.964 146.165 536.68 145.424C536.828 145.375 536.952 145.35 537.1 145.301C537.545 145.819 546.016 155.799 550.831 162.123C550.683 162.271 550.51 162.395 550.337 162.543C550.239 162.617 550.165 162.667 550.091 162.741C549.992 162.815 549.918 162.864 549.844 162.914C549.72 162.988 549.646 163.062 549.597 163.111C549.473 163.185 549.399 163.26 549.325 163.309C549.053 163.482 548.782 163.655 548.51 163.803C548.386 163.877 548.312 163.902 548.238 163.951C548.115 164.025 548.041 164.05 547.967 164.099C547.843 164.174 547.744 164.198 547.67 164.248C547.349 164.396 547.077 164.519 546.781 164.643C546.658 164.692 546.584 164.717 546.485 164.742C546.361 164.791 546.263 164.816 546.188 164.841C546.04 164.89 545.966 164.915 545.867 164.939C545.522 165.038 545.225 165.137 544.904 165.211C544.781 165.236 544.682 165.26 544.608 165.285C544.46 165.31 544.386 165.335 544.287 165.359C544.139 165.384 544.065 165.409 543.966 165.409C543.818 165.433 543.719 165.458 543.62 165.458C543.373 165.483 543.175 165.507 542.928 165.532C542.805 165.532 542.706 165.532 542.607 165.557C542.459 165.557 542.36 165.557 542.286 165.557C542.114 165.557 542.039 165.557 541.941 165.557C541.768 165.557 541.694 165.557 541.595 165.557C541.323 165.557 541.101 165.557 540.854 165.557C540.73 165.557 540.632 165.557 540.508 165.557C540.36 165.557 540.261 165.557 540.162 165.557C539.99 165.557 539.891 165.557 539.817 165.532C539.644 165.532 539.545 165.532 539.446 165.507C539.273 165.507 539.15 165.483 539.051 165.458C538.779 165.433 538.557 165.384 538.31 165.359C538.137 165.335 538.039 165.31 537.964 165.31C537.94 165.31 537.89 165.31 537.866 165.31C537.792 165.31 537.693 165.285 537.619 165.26C537.594 165.26 537.545 165.26 537.52 165.26C537.421 165.26 537.347 165.236 537.248 165.211C537.224 165.211 537.174 165.211 537.149 165.211C537.051 165.211 536.952 165.162 536.853 165.137C536.532 165.063 536.285 165.013 536.038 164.939C535.865 164.89 535.766 164.865 535.668 164.841C535.618 164.841 535.594 164.841 535.544 164.816C535.47 164.791 535.371 164.766 535.297 164.742C535.248 164.742 535.223 164.717 535.174 164.692C535.1 164.668 535.001 164.643 534.927 164.618C534.877 164.618 534.828 164.593 534.803 164.569C534.729 164.544 534.63 164.519 534.556 164.495C534.507 164.495 534.482 164.47 534.433 164.445C534.334 164.396 534.211 164.371 534.112 164.322C533.939 164.272 533.815 164.223 533.692 164.174C533.519 164.099 533.42 164.075 533.322 164.025C533.272 164.025 533.247 164.001 533.198 163.976C533.124 163.951 533.025 163.902 532.951 163.877C532.902 163.877 532.852 163.828 532.803 163.828C532.729 163.803 532.63 163.754 532.556 163.729C532.507 163.729 532.457 163.679 532.408 163.679C532.334 163.655 532.235 163.605 532.161 163.581C532.111 163.581 532.062 163.531 532.037 163.531C531.938 163.482 531.84 163.457 531.741 163.408C531.519 163.309 531.395 163.235 531.247 163.185C531.074 163.111 530.975 163.062 530.852 162.988C530.802 162.988 530.753 162.938 530.728 162.914C530.654 162.864 530.556 162.84 530.481 162.79C530.432 162.765 530.383 162.741 530.333 162.716C530.259 162.667 530.16 162.642 530.086 162.593C530.037 162.568 529.987 162.543 529.938 162.518C529.864 162.469 529.765 162.42 529.691 162.395C529.642 162.37 529.592 162.346 529.543 162.321C529.444 162.271 529.37 162.222 529.271 162.173L529.345 162.049Z" fill="#4B5CC0"/>
<path d="M514.504 148.931C514.232 148.586 513.936 148.215 513.664 147.869C513.936 148.24 514.207 148.586 514.504 148.931Z" fill="#A6D0F4"/>
<path d="M515.936 150.685C515.936 150.685 515.763 150.463 515.664 150.364C515.763 150.463 515.837 150.586 515.936 150.685Z" fill="#A6D0F4"/>
<path d="M516.628 151.5C516.628 151.5 516.405 151.253 516.307 151.13C516.405 151.253 516.529 151.377 516.628 151.5Z" fill="#A6D0F4"/>
<path d="M517.69 152.662C517.344 152.291 516.998 151.896 516.652 151.525C516.998 151.921 517.344 152.291 517.69 152.662Z" fill="#A6D0F4"/>
<path d="M518.701 153.723C518.701 153.723 518.528 153.551 518.43 153.452C518.504 153.551 518.603 153.625 518.701 153.723Z" fill="#A6D0F4"/>
<path d="M519.468 154.49C519.468 154.49 519.245 154.268 519.146 154.169C519.245 154.268 519.369 154.391 519.468 154.49Z" fill="#A6D0F4"/>
<path d="M520.208 155.206C519.961 154.984 519.739 154.737 519.492 154.515C519.739 154.762 519.961 154.984 520.208 155.206Z" fill="#A6D0F4"/>
<path d="M521.642 156.515C521.642 156.515 521.469 156.367 521.395 156.293C521.469 156.367 521.567 156.441 521.642 156.515Z" fill="#A6D0F4"/>
<path d="M523.221 157.874C523.221 157.874 522.999 157.701 522.9 157.603C522.999 157.701 523.123 157.775 523.221 157.874Z" fill="#A6D0F4"/>
<path d="M546.213 164.84C546.213 164.84 546.04 164.889 545.941 164.914C546.04 164.889 546.114 164.865 546.213 164.84Z" fill="#A6D0F4"/>
<path d="M520.109 117.51L520.405 121.141C520.455 121.586 520.504 122.055 520.578 122.524C520.504 122.524 520.405 122.475 520.307 122.426C520.257 122.401 520.208 122.351 520.158 122.327C517.985 120.598 516.775 114.743 518.281 114.669C518.528 114.669 518.751 114.718 518.948 114.842C519.146 114.965 519.319 115.114 519.492 115.287C519.788 116.645 520.035 117.658 520.035 117.707L520.084 117.51H520.109Z" fill="#CBDCEB"/>
<path d="M549.374 163.309C549.103 163.481 548.856 163.654 548.584 163.802C548.856 163.654 549.127 163.481 549.374 163.309Z" fill="#A6D0F4"/>
<path d="M535.619 143.447C535.965 144.139 536.36 144.806 536.78 145.424C534.063 146.165 531.544 145.473 529.346 144.213C525.79 142.163 523.147 138.556 522.135 137.049C522.579 136.926 523.049 136.728 523.394 136.407C523.962 135.197 524.283 132.949 524.432 131.565L527.469 135.913C528.037 136.728 528.704 137.346 529.371 137.716C530.038 138.087 530.704 138.235 531.272 138.087L534.409 137.247C534.409 137.247 534.532 137.222 534.582 137.198C534.705 138.729 535.026 141.496 535.619 143.447Z" fill="#CBDCEB"/>
<path d="M549.894 162.963C549.894 162.963 549.746 163.062 549.672 163.111C549.746 163.062 549.82 163.012 549.894 162.963Z" fill="#A6D0F4"/>
<path d="M550.141 162.765C550.141 162.765 550.017 162.863 549.943 162.913C550.017 162.863 550.092 162.814 550.141 162.765Z" fill="#A6D0F4"/>
<path d="M536.508 123.636C537.619 124.279 537.866 124.254 537.866 124.254L538.607 129.713L538.434 131.541C538.41 131.912 538.335 132.258 538.286 132.603C537.792 134.975 536.508 136.605 534.606 137.198C534.557 137.198 534.483 137.223 534.433 137.247L531.297 138.087C530.729 138.236 530.062 138.087 529.395 137.717C528.728 137.346 528.062 136.704 527.494 135.914L524.456 131.566L524.382 131.467C522.431 128.7 521.097 125.514 520.579 122.525C520.504 122.055 520.43 121.586 520.406 121.141L520.109 117.51L522.653 109.506C522.653 109.506 523.048 108.938 524.011 109.506C524.53 109.803 525.197 110.42 526.061 111.631C528.506 115.089 528.753 118.202 532.976 121.265C534.656 122.475 535.767 123.192 536.508 123.636Z" fill="#CBDCEB"/>
<path d="M540.78 127.662C542.262 129.466 541.027 133.912 538.854 133.122C538.804 133.122 538.755 133.072 538.706 133.047C538.508 132.949 538.36 132.776 538.236 132.603C538.31 132.257 538.36 131.911 538.385 131.541L538.557 129.713L538.631 130.182C538.631 130.182 539.175 128.848 539.644 126.896C539.792 126.896 539.94 126.971 540.089 127.045C540.286 127.168 540.508 127.366 540.755 127.638L540.78 127.662Z" fill="#CBDCEB"/>
<path d="M532.73 105.159C537.2 109.161 539.645 114.472 540.312 119.412C540.658 121.981 540.188 124.797 539.67 126.897C539.176 128.824 538.682 130.108 538.657 130.183L538.583 129.713L537.842 124.254C537.842 124.254 537.595 124.279 536.484 123.636C535.743 123.216 534.632 122.5 532.952 121.265C528.729 118.202 528.482 115.089 526.037 111.631C525.173 110.42 524.506 109.803 523.987 109.506C523.049 108.963 522.654 109.506 522.629 109.506L520.085 117.51L520.036 117.708C520.036 117.708 519.789 116.646 519.493 115.287C519.172 113.829 518.777 112.001 518.579 110.742C518.159 108.321 519.27 103.479 521.049 101.824C522.432 100.539 526.087 100.861 529.766 102.985C530.779 103.578 531.792 104.294 532.755 105.159H532.73Z" fill="#8182EE"/>
<path d="M522.134 137.05C521.838 136.605 521.69 136.358 521.69 136.358C521.196 136.358 511.787 136.58 507.193 137.445C503.266 129.614 500.895 121.141 500.92 113.409C500.97 95.6234 513.54 88.4596 529 97.402C544.46 106.344 556.957 127.984 556.907 145.745C556.907 153.551 554.462 159.307 550.412 162.543C550.585 162.419 550.733 162.271 550.906 162.123C546.09 155.799 537.644 145.819 537.175 145.3C537.027 145.35 536.903 145.374 536.755 145.424C536.335 144.806 535.94 144.139 535.594 143.448C535.001 141.496 534.705 138.729 534.557 137.198C536.434 136.605 537.743 134.975 538.237 132.603C538.36 132.776 538.508 132.949 538.706 133.048C541.027 133.912 542.287 129.466 540.78 127.663C540.533 127.366 540.311 127.193 540.114 127.07C539.965 126.971 539.817 126.922 539.669 126.922C540.188 124.822 540.657 121.981 540.311 119.437C539.644 114.521 537.199 109.185 532.729 105.183C531.766 104.319 530.754 103.602 529.741 103.009C526.061 100.885 522.431 100.589 521.023 101.848C519.245 103.479 518.134 108.321 518.553 110.766C518.751 112.026 519.146 113.829 519.467 115.311C519.294 115.114 519.121 114.966 518.924 114.867C518.726 114.743 518.504 114.669 518.257 114.694C516.751 114.768 517.961 120.622 520.134 122.352C520.381 122.5 520.48 122.549 520.554 122.549C521.073 125.538 522.406 128.7 524.357 131.492C524.283 132.974 523.962 135.222 523.394 136.432C523.024 136.753 522.579 136.951 522.134 137.074V137.05Z" fill="#25437F"/>
<path d="M519.072 154.095C519.072 154.095 518.9 153.897 518.801 153.823C518.9 153.922 518.974 154.021 519.072 154.095Z" fill="#A6D0F4"/>
<path d="M522.43 157.207C522.43 157.207 522.208 157.034 522.109 156.936C522.208 157.034 522.332 157.108 522.43 157.207Z" fill="#A6D0F4"/>
<path d="M524.851 159.134C524.851 159.134 524.753 159.06 524.703 159.035C524.753 159.06 524.802 159.109 524.851 159.134Z" fill="#A6D0F4"/>
<path d="M534.63 164.395C534.63 164.395 534.557 164.37 534.508 164.346C534.557 164.346 534.581 164.37 534.63 164.395Z" fill="#A6D0F4"/>
<path d="M535.249 164.618C535.249 164.618 535.076 164.569 535.002 164.544C535.076 164.569 535.175 164.593 535.249 164.618Z" fill="#A6D0F4"/>
<path d="M535.396 164.642C535.396 164.642 535.322 164.617 535.273 164.593C535.322 164.593 535.347 164.617 535.396 164.642Z" fill="#A6D0F4"/>
<path d="M535.643 164.717C535.643 164.717 535.471 164.667 535.396 164.643C535.471 164.667 535.569 164.692 535.643 164.717Z" fill="#A6D0F4"/>
<path d="M543.003 165.507C543.003 165.507 542.805 165.507 542.682 165.532C542.78 165.532 542.879 165.532 543.003 165.507Z" fill="#A6D0F4"/>
<path d="M546.831 164.618C546.831 164.618 546.658 164.692 546.584 164.717C546.658 164.692 546.757 164.643 546.831 164.618Z" fill="#A6D0F4"/>
<path d="M533.174 261.23C533.223 261.427 533.297 261.625 533.371 261.823L533.199 261.872C533.199 261.65 533.199 261.427 533.199 261.205L533.174 261.23Z" fill="#25437F"/>
<path d="M517.887 231.858C518.06 233.414 518.406 234.822 518.924 235.811C518.924 235.811 519.023 235.712 519.147 235.539L519.369 238.182C519.418 238.627 519.468 239.096 519.542 239.565C519.443 239.565 519.344 239.516 519.221 239.442C519.221 239.442 519.196 239.442 519.171 239.417C519.147 239.392 519.122 239.392 519.122 239.368C517.615 238.182 516.578 235.045 516.578 233.167C516.578 232.328 516.776 231.735 517.245 231.71C517.467 231.71 517.689 231.759 517.887 231.883V231.858Z" fill="#CBDCEB"/>
<path d="M532.163 254.61C532.212 255.895 532.41 258.637 533.175 261.206C533.175 261.428 533.175 261.65 533.175 261.873C531.496 262.441 529.94 262.12 528.582 261.428C528.483 261.379 528.409 261.329 528.31 261.28C528.261 261.255 528.211 261.23 528.162 261.206C525.544 259.625 523.766 256.636 523.519 256.166C523.519 256.117 523.494 256.117 523.494 256.117C524.359 254.462 524.605 251.819 524.68 250.46L526.433 252.98C527.001 253.795 527.668 254.412 528.335 254.808C529.001 255.203 529.668 255.351 530.236 255.178L532.163 254.659V254.61Z" fill="#CBDCEB"/>
<path d="M543.769 273.482C542.954 272.42 541.867 271.16 540.731 269.826C540.608 270.74 540.385 271.629 539.99 272.494C537.743 277.607 533.693 277.286 533.47 277.262C533.52 277.113 534.359 274.149 534.359 271.012C534.359 270.048 534.285 269.085 534.063 268.22C533.841 267.356 533.668 266.442 533.52 265.528C533.322 264.293 533.223 263.058 533.174 261.872C531.495 262.44 529.939 262.119 528.58 261.427C528.482 261.378 528.408 261.328 528.309 261.279C528.259 261.254 528.21 261.23 528.161 261.205C525.543 259.624 523.765 256.635 523.518 256.166C523.518 256.116 523.493 256.116 523.468 256.092C523.246 256.092 516.257 255.375 513.096 255.795C511.984 255.943 510.972 257.92 510.107 260.464C515.047 268.468 521.616 275.384 528.803 279.534C535.668 283.511 541.991 284.277 546.856 282.375C545.967 278.521 544.905 275.014 543.719 273.507L543.769 273.482Z" fill="#4B5CC0"/>
<path d="M537.25 256.412C536.558 254.807 536.163 253.522 535.965 252.534C535.348 253.325 534.558 253.893 533.644 254.214C533.545 254.239 533.471 254.288 533.372 254.313L532.162 254.634C532.212 255.918 532.409 258.66 533.175 261.229C533.224 261.427 533.298 261.625 533.372 261.822L533.199 261.872C533.224 263.057 533.348 264.317 533.545 265.528C533.693 266.466 533.866 267.356 534.088 268.22C534.311 269.085 534.385 270.048 534.385 271.012C534.385 274.149 533.545 277.113 533.496 277.261C533.718 277.261 537.768 277.583 540.016 272.494C540.411 271.629 540.633 270.715 540.757 269.826C540.831 269.332 540.855 268.863 540.855 268.369C540.855 264.367 538.929 260.192 537.299 256.412H537.25Z" fill="#8182EE"/>
<path d="M536.83 247.915L535.62 242.456C525.05 235.91 521.716 227.116 521.543 226.646C521.592 227.141 521.617 227.61 521.617 228.055C521.617 231.241 520.505 233.514 519.715 234.724C519.493 235.07 519.295 235.317 519.172 235.515L519.394 238.158C519.444 238.603 519.493 239.072 519.567 239.541C520.061 242.53 521.419 245.717 523.346 248.484L524.704 250.41C524.72 250.098 524.72 250.098 524.704 250.41L526.457 252.93C527.025 253.745 527.692 254.363 528.359 254.758C529.026 255.153 529.693 255.302 530.261 255.129L532.187 254.61L533.397 254.289C533.397 254.289 533.57 254.215 533.669 254.19C534.607 253.869 535.398 253.301 535.99 252.51C536.583 251.744 537.003 250.781 537.25 249.595C536.978 249.151 536.879 248.533 536.855 247.891L536.83 247.915Z" fill="#CBDCEB"/>
<path d="M537.225 249.62L537.299 249.719L537.274 249.817L537.225 249.645V249.62Z" fill="#25437F"/>
<path d="M536.83 247.915L537.225 249.62C536.954 249.175 536.855 248.557 536.83 247.915Z" fill="#FF8D68"/>
<path d="M539.126 244.111C539.323 244.235 539.546 244.408 539.768 244.679C540.237 245.247 540.435 246.063 540.41 246.902C540.385 248.755 539.323 250.682 537.841 250.139C537.792 250.139 537.743 250.089 537.693 250.064C537.644 250.064 537.619 250.015 537.57 249.99C537.446 249.916 537.348 249.817 537.273 249.694C537.422 249.249 538.237 246.828 538.854 243.963C538.903 243.963 538.928 243.988 538.978 244.012C539.027 244.012 539.052 244.062 539.101 244.086L539.126 244.111Z" fill="#CBDCEB"/>
<path d="M529.001 215.159C544.461 224.077 556.957 245.741 556.908 263.503C556.883 273.359 552.981 279.954 546.881 282.351C545.992 278.497 544.93 274.989 543.745 273.482C542.93 272.42 541.843 271.16 540.707 269.826C540.781 269.332 540.806 268.863 540.806 268.369C540.806 264.367 538.879 260.192 537.249 256.413C536.558 254.807 536.163 253.523 535.965 252.535C536.558 251.769 536.978 250.805 537.225 249.644C537.373 249.842 537.472 249.941 537.595 250.015C539.349 250.707 540.411 248.755 540.435 246.927C540.435 246.087 540.238 245.272 539.793 244.704C539.571 244.432 539.349 244.234 539.151 244.136C539.299 242.159 539.62 240.134 539.645 238.306C539.645 237.787 539.645 237.293 539.571 236.824C539.028 231.809 535.694 225.633 529.396 220.915C529.272 220.816 529.174 220.742 529.05 220.668C528.581 220.347 528.136 220.051 527.692 219.779C522.678 216.938 519.443 218.692 518.455 222.002C518.381 222.274 518.307 222.546 518.258 222.817C517.961 224.522 517.764 226.523 517.764 228.474C517.764 229.635 517.813 230.796 517.937 231.883C517.739 231.76 517.542 231.71 517.295 231.71C516.825 231.71 516.628 232.328 516.628 233.168C516.628 235.045 517.69 238.182 519.172 239.368C519.394 239.516 519.517 239.541 519.591 239.566C520.085 242.555 521.444 245.741 523.37 248.508L524.728 250.435C524.654 251.793 524.407 254.437 523.518 256.092C523.296 256.092 516.307 255.375 513.146 255.795C512.034 255.944 511.022 257.92 510.157 260.464C504.477 251.275 500.921 240.677 500.945 231.191C500.995 213.406 513.565 206.242 529.05 215.184L529.001 215.159Z" fill="#25437F"/>
<path d="M539.522 236.824C538.979 231.809 535.645 225.634 529.347 220.916C529.223 220.817 529.125 220.743 529.001 220.669C528.532 220.347 528.087 220.051 527.593 219.755C527.544 219.755 527.519 219.705 527.47 219.68C522.629 216.938 519.394 218.692 518.406 222.003C518.332 222.274 518.258 222.546 518.209 222.818C517.912 224.522 517.715 226.523 517.715 228.475C517.715 229.636 517.764 230.797 517.912 231.884C517.912 231.884 517.888 231.884 517.863 231.884C518.036 233.44 518.382 234.848 518.9 235.836C518.9 235.836 518.999 235.737 519.147 235.564C519.295 235.391 519.493 235.12 519.691 234.774C520.481 233.539 521.567 231.266 521.592 228.104C521.592 227.659 521.592 227.165 521.518 226.696C521.691 227.165 525.025 235.959 535.595 242.506L536.805 247.965L537.2 249.669L537.275 249.768C537.423 249.324 538.238 246.903 538.855 244.037C539.25 242.185 539.571 240.134 539.571 238.331C539.571 237.812 539.571 237.318 539.497 236.849L539.522 236.824Z" fill="#8182EE"/>
<path d="M489.905 94.8079C490.967 95.4255 491.807 96.9076 491.807 98.1181C491.807 99.3285 490.967 99.8226 489.88 99.205L411.889 54.1721C410.851 53.5792 410.012 52.0971 410.012 50.8867C410.012 49.6762 410.851 49.1822 411.913 49.775L489.905 94.8079Z" fill="#79AEF5"/>
<path d="M467.431 93.0296C468.468 93.6225 469.308 95.0799 469.308 96.2903C469.308 97.5008 468.468 97.9948 467.406 97.402L411.863 65.338C410.826 64.7451 409.986 63.2629 409.986 62.0525C409.986 60.8421 410.826 60.3727 411.888 60.9656L467.431 93.0296Z" fill="#79AEF5"/>
<path d="M489.905 220.323C490.967 220.94 491.807 222.422 491.807 223.633C491.807 224.843 490.967 225.337 489.88 224.72L411.889 179.687C410.851 179.094 410.012 177.612 410.012 176.401C410.012 175.191 410.851 174.697 411.913 175.29L489.905 220.323Z" fill="#254DA1"/>
<path d="M467.431 218.519C468.468 219.112 469.308 220.569 469.308 221.78C469.308 222.99 468.468 223.484 467.406 222.891L411.863 190.827C410.826 190.234 409.986 188.752 409.986 187.542C409.986 186.331 410.826 185.862 411.888 186.455L467.431 218.519Z" fill="#254DA1"/>
<path d="M467.185 243.814C470.494 241.888 475.063 242.159 480.101 245.074C490.128 250.855 498.229 264.886 498.179 276.422C498.179 282.153 496.154 286.179 492.894 288.081L488.918 290.404C492.178 288.501 494.203 284.475 494.203 278.744C494.228 267.232 486.152 253.201 476.125 247.396C471.087 244.481 466.494 244.21 463.209 246.136L467.185 243.814Z" fill="#86E563"/>
<path d="M476.125 247.396C486.151 253.176 494.252 267.207 494.202 278.743C494.178 290.255 486.028 294.924 476.001 289.119C465.974 283.338 457.874 269.282 457.898 257.771C457.923 246.26 466.098 241.615 476.125 247.396Z" fill="#2AB774"/>
<path d="M482.644 262.539L486.546 269.283L471.654 277.781L464.418 265.256L468.345 263.008L471.679 268.789L482.644 262.539Z" fill="white"/>
<path d="M467.185 301.742C470.494 299.815 475.063 300.087 480.101 303.002C490.128 308.782 498.229 322.813 498.179 334.35C498.179 340.081 496.154 344.107 492.894 346.009L488.918 348.331C492.178 346.429 494.203 342.403 494.203 336.672C494.228 325.16 486.152 311.129 476.125 305.324C471.087 302.409 466.494 302.137 463.209 304.064L467.185 301.742Z" fill="#FF7363"/>
<path d="M476.125 305.324C486.151 311.104 494.252 325.135 494.202 336.671C494.178 348.183 486.028 352.851 476.001 347.046C465.974 341.266 457.874 327.21 457.898 315.699C457.923 304.187 466.098 299.543 476.125 305.324Z" fill="#FF465C"/>
<path d="M481.237 319.874L485.114 326.618L479.459 329.879L485.09 339.611L481.163 341.859L475.532 332.077L469.877 335.338L465.975 328.569L471.63 325.358L466.024 315.6L469.951 313.353L475.557 323.11L481.237 319.874Z" fill="white"/>
<path d="M387.216 181.465C385.438 175.289 379.437 169.904 370.447 170.324C361.803 170.744 355.432 174.573 353.308 181.02C352.048 184.849 352.345 191.543 354.641 196.36C355.778 198.732 357.951 200.906 360.544 202.709L358.025 211.627C360.272 214.344 369.657 217.629 376.251 217.283C376.251 217.283 377.041 214.171 377.881 210.836C382.277 212.071 385.512 208.465 387.093 203.549C388.179 200.14 388.55 186.282 387.192 181.465H387.216Z" fill="#FF8E54"/>
<path d="M387.216 181.465C385.438 175.289 379.437 169.904 370.448 170.324C370.299 170.324 370.151 170.349 370.003 170.373L352.913 182.65C352.172 186.553 352.641 192.161 354.666 196.36C355.802 198.732 357.976 200.906 360.569 202.709L358.05 211.627C360.297 214.344 369.682 217.629 376.276 217.283C376.276 217.283 377.066 214.171 377.906 210.836C379.486 211.281 380.919 211.083 382.203 210.416C380.919 209.897 379.906 208.563 378.894 206.711C377.288 203.771 382.648 201.894 382.919 198.929C383.191 195.99 381.314 190.876 384.796 188.48C386.599 187.245 387.315 185.096 387.587 183.268C387.488 182.576 387.365 181.959 387.216 181.44V181.465Z" fill="#FF5F4D"/>
<path d="M372.694 495.237C413.436 495.237 446.463 474.246 446.463 448.352C446.463 422.458 413.436 401.466 372.694 401.466C331.953 401.466 298.926 422.458 298.926 448.352C298.926 474.246 331.953 495.237 372.694 495.237Z" fill="#CBDCEB"/>
<path d="M406.332 208.02L409.493 205.599L413.593 197.003C413.593 197.003 415.84 196.064 416.384 195.891C416.952 195.693 421.224 196.632 421.224 196.632C421.224 196.632 423.274 194.211 423.842 193.841C424.41 193.47 426.633 191.049 427.571 191.593C428.51 192.161 428.312 193.075 427.769 193.841C427.201 194.582 425.348 196.459 425.348 196.459L423.299 201.499L423.496 203.376C423.496 203.376 424.608 203.376 424.978 204.488C425.348 205.599 425.348 206.735 424.039 207.106C422.731 207.477 421.619 208.045 421.619 208.045C421.619 208.045 419.001 209.922 417.52 210.466C416.038 211.034 414.358 211.404 414.358 211.404L413.42 213.652L406.332 208.045V208.02Z" fill="#FF8E54"/>
<path d="M424.978 204.463C424.978 204.463 424.929 204.414 424.929 204.364C424.163 204.364 423.249 204.463 422.706 204.685C421.669 205.13 420.162 207.23 419.569 207.674C418.977 208.119 415.371 209.774 413.741 208.267C412.531 207.156 409.864 206.563 408.555 206.316L406.332 208.02L413.42 213.628L414.358 211.38C414.358 211.38 416.038 211.009 417.52 210.441C419.001 209.873 421.619 208.02 421.619 208.02C421.619 208.02 422.731 207.452 424.039 207.082C425.348 206.711 425.348 205.599 424.978 204.463Z" fill="#FF5F4D"/>
<path d="M402.824 209.453L406.8 206.192C406.8 206.192 413.468 207.625 414.209 213.233L410.949 216.666L402.824 209.453Z" fill="#F9FBFC"/>
<path d="M381.314 227.116L402.973 207.082C402.973 207.082 412.729 207.625 413.79 215.753L392.132 240.653C392.132 240.653 381.314 238.479 381.314 227.116Z" fill="#253C72"/>
<path d="M392.132 240.652L413.791 215.752C413.494 213.529 412.531 211.874 411.296 210.639C404.011 220.915 390.699 232.204 390.699 232.204L388.896 239.467C390.724 240.381 392.132 240.677 392.132 240.677V240.652Z" fill="#252F4C"/>
<path d="M340.392 438.965L339.725 448.03C339.626 449.488 340.441 450.847 341.775 451.415C343.01 451.934 344.812 452.329 347.183 451.958C352.37 451.168 354.765 448.376 355.555 446.771C356.346 445.165 366.743 437.977 365.533 434.395C363.532 430.813 359.951 434.395 356.346 434.395C352.74 434.395 345.158 432.591 340.367 438.989L340.392 438.965Z" fill="#171E26"/>
<path d="M342.787 300.211C342.787 300.211 340.391 361.3 341.601 380.469C341.601 380.469 336.81 428.392 339.206 439.756C339.206 439.756 347.578 445.734 354.765 440.941C356.568 440.348 356.568 437.952 356.568 437.952C356.568 437.952 361.359 393.043 362.544 379.259C363.73 365.475 373.312 324.147 371.534 315.18C369.731 306.189 358.37 293.615 342.787 300.211Z" fill="#171E26"/>
<path d="M381.412 451.736C381.412 451.736 378.128 461.913 380.523 464.31C382.919 466.706 385.907 467.299 388.105 466.607C390.303 465.915 392.402 464.902 392.402 464.902L393.094 462.803L393.884 464.211C393.884 464.211 395.069 464.013 396.675 463.124C398.28 462.235 402.874 460.431 404.75 459.221C406.652 458.035 410.036 455.935 410.332 453.342C410.529 450.748 401.244 451.637 398.749 451.736C396.255 451.835 394.65 450.847 393.76 450.847C392.871 450.847 383.19 452.032 383.19 452.032" fill="#171E26"/>
<path d="M396.551 299.099C396.551 299.099 399.045 308.214 399.045 326.593C399.045 344.971 397.44 391.264 397.44 391.264C397.44 391.264 396.65 438.372 395.835 450.353C395.835 450.353 390.253 457.541 380.671 451.958C375.88 446.376 377.485 442.374 377.485 442.374C377.485 442.374 371.089 413.62 373.484 387.262C373.484 387.262 364.692 333.756 363.112 327.383C361.531 321.01 333.673 318.243 344.54 287.068L396.526 299.099H396.551Z" fill="#1F2F3F"/>
<path d="M381.313 327.407C381.313 327.407 394.18 333.04 392.574 351.542C390.969 370.044 387.759 382.124 389.364 393.363C390.969 404.628 393.389 411.051 391.784 424.736C390.475 435.852 385.98 446.449 389.537 453.91C393.636 453.218 395.884 450.328 395.884 450.328C396.674 438.347 397.489 391.239 397.489 391.239C397.489 391.239 399.094 344.922 399.094 326.568C399.094 318.663 398.625 312.487 398.106 307.991L378.127 316.958L381.338 327.407H381.313Z" fill="#25437F"/>
<path d="M402.133 240.257C402.306 236.28 400.404 232.5 397.095 230.302C389.785 225.436 379.832 219.235 373.411 215.851C365.409 211.627 357.136 207.18 352.715 206.76C340.392 205.624 332.958 217.086 334.119 232.155C334.835 241.319 337.255 251.521 340.589 261.995C341.997 266.467 342.96 274.371 343.331 281.634C343.257 285.142 342.96 289.119 341.997 291.441C339.997 296.233 337.996 315.402 337.996 315.402C337.996 315.402 351.579 329.384 369.139 330.57C386.698 331.756 393.489 328.174 393.489 328.174L394.675 320.195L397.07 327.383C397.07 327.383 400.256 326.197 400.651 322.986C401.022 320.096 397.811 295.467 397.169 290.675C398.182 280.72 400.182 266.071 400.8 259.426C401.368 253.3 401.837 246.285 402.108 240.282L402.133 240.257Z" fill="#25437F"/>
<path d="M358.345 206.859C358.345 206.859 364.124 211.849 377.905 213.85L379.979 218.815C379.979 218.815 374.719 220.224 367.928 219.433C361.136 218.643 355.555 213.233 354.962 212.047L354.369 210.861L358.37 206.859H358.345Z" fill="#F9FBFC"/>
<path d="M350.344 180.995C350.344 180.995 350.344 171.757 360.395 168.94C370.447 166.124 371.657 167.335 374.473 165.309C377.288 163.308 380.918 162.888 386.129 164.494C391.365 166.1 392.155 171.337 390.55 176.154C388.945 180.971 388.13 183.787 384.104 185.812C380.079 187.813 380.894 192.655 380.894 192.655C380.894 192.655 381.709 197.892 378.893 199.893L376.473 193.865C376.473 193.865 374.472 200.708 372.447 203.104C370.447 205.525 366.002 206.736 361.581 206.736C357.16 206.736 351.529 195.866 349.924 192.26C348.319 188.628 351.529 185.417 351.529 185.417C351.529 185.417 349.529 183.811 350.319 180.995H350.344Z" fill="#25437F"/>
<path d="M386.13 240.528C382.104 230.869 367.632 233.29 348.319 226.052C339.033 222.569 337.749 217.234 338.934 212.614C335.279 217.234 333.477 224.175 334.094 232.154C334.81 241.319 337.23 251.521 340.564 261.995C341.972 266.466 342.935 274.371 343.306 281.633C343.232 285.141 342.935 289.118 341.972 291.44C339.972 296.233 337.971 315.402 337.971 315.402C337.971 315.402 351.554 329.384 369.114 330.569C378.918 331.236 385.339 330.421 389.143 329.556C391.909 309.424 379.536 299.543 376.498 290.403C373.287 280.744 390.18 250.187 386.154 240.528H386.13Z" fill="#252F4C"/>
<path d="M382.648 168.125C380.82 164.766 377.239 164.717 374.498 165.285C374.498 165.285 374.498 165.285 374.473 165.285C371.658 167.286 370.448 166.1 360.396 168.916C350.345 171.732 350.345 180.971 350.345 180.971C349.53 183.787 351.555 185.393 351.555 185.393C351.555 185.393 348.344 188.604 349.949 192.235C351.036 194.681 353.975 200.437 357.136 203.92C363.36 202.833 366.076 197.719 364.965 194.384C363.36 189.567 368.719 193.841 370.349 190.704C371.979 187.542 364.965 185.269 371.929 178.846C378.894 172.399 385.858 174.029 382.648 168.125Z" fill="#252F4C"/>
<path d="M460.418 274.717L463.801 273.951C463.801 273.951 469.432 269.48 470.223 269.233C471.013 268.986 477.829 263.873 478.496 265.034C479.163 266.219 478.397 267.257 477.409 267.899C476.421 268.541 474.47 269.431 474.47 269.431L472.766 271.926C472.766 271.926 473.853 273.679 473.902 274.692C473.952 275.705 473.804 277.113 473.804 277.113C473.804 277.113 474.495 278.892 473.557 280.547C472.618 282.202 470.469 283.313 469.037 283.165C467.629 283.017 464.394 282.77 464.394 282.77L462.196 283.066L460.418 274.692V274.717Z" fill="#FF8E54"/>
<path d="M473.557 280.596C474.101 279.657 474.076 278.694 474.002 278.027C473.162 278.941 471.977 280.052 471.063 280.151C469.458 280.349 467.433 281.757 466.025 279.558C464.617 277.335 461.802 275.532 461.802 275.532L460.518 275.31L462.172 283.116L464.37 282.819C464.37 282.819 467.606 283.066 469.013 283.214C470.421 283.363 472.594 282.251 473.533 280.596H473.557Z" fill="#FF5F4D"/>
<path d="M456.936 274.173L461.109 273.457C461.109 273.457 464.172 275.31 464.493 279.534C464.567 283.388 463.11 284.771 463.11 284.771L459.726 285.191L456.96 274.173H456.936Z" fill="#CBDCEB"/>
<path d="M396.651 230.672C396.651 230.672 400.997 231.463 404.307 238.923C407.616 246.383 418.68 271.975 421.397 274.099C424.113 276.199 456.984 272.444 456.984 272.444C456.984 272.444 463.48 276.644 461.948 282.029C460.417 286.871 458.244 286.377 458.244 286.377C458.244 286.377 425.966 293.886 419.544 294.504C413.123 295.121 410.407 292.478 408.777 291.441C407.147 290.379 393.934 264.811 391.193 260.562C388.451 256.314 381.289 241.393 386.574 235.959C391.86 230.524 396.651 230.672 396.651 230.672Z" fill="#25437F"/>
<path d="M458.245 286.377C458.245 286.377 460.393 286.895 461.949 282.029C462.27 280.893 462.221 279.83 461.974 278.842C458.245 280.003 452.935 281.535 447.477 282.77C437.327 285.043 424.262 287.464 415.124 284.376C405.962 281.288 396.553 258.883 393.169 246.581C391.44 240.306 391.959 235.143 392.897 231.562C391.119 232.278 388.921 233.538 386.6 235.934C381.315 241.368 388.477 256.289 391.218 260.538C393.959 264.787 407.172 290.354 408.802 291.416C410.432 292.478 413.149 295.121 419.57 294.479C425.991 293.862 458.269 286.352 458.269 286.352L458.245 286.377Z" fill="#252F4C"/>
<path d="M154.402 148.71L155.069 379.111L286.282 303.323L285.64 72.9219L154.402 148.71Z" fill="#CBDCEB"/>
<path d="M171.566 158.369L167.021 155.726L167.688 386.127L172.208 388.745L171.566 158.369Z" fill="#BDC5CB"/>
<path d="M302.779 82.5807L298.259 79.9375L167.021 155.725L171.566 158.368L302.779 82.5807Z" fill="white"/>
<path d="M171.566 158.369L172.209 388.745L303.446 312.982L302.779 82.5811L171.566 158.369Z" fill="#EAF1F7"/>
<path d="M274.873 131.985V135.296L198.486 179.414V176.104L274.873 131.985Z" fill="#A6D0F4"/>
<path d="M241.83 164.296V167.606L198.536 192.605L198.512 189.295L241.83 164.296Z" fill="#A6D0F4"/>
<path d="M268.773 213.455V216.741L198.709 257.203V253.918L268.773 213.455Z" fill="#A6D0F4"/>
<path d="M241.953 214.319L241.978 217.605L198.66 242.604V239.318L241.953 214.319Z" fill="#A6D0F4"/>
<path d="M253.485 194.434V197.719L198.634 229.413L198.609 226.102L253.485 194.434Z" fill="#A6D0F4"/>
<path d="M218.441 192.433V195.743L198.561 207.205V203.919L218.441 192.433Z" fill="#A6D0F4"/>
<path d="M219.652 267.109C231.827 260.069 243.361 261.873 248.127 272.964C254.079 286.822 247.312 310.191 232.963 326.322L229.629 318.565C239.36 307.227 243.879 291.17 239.755 281.585C236.396 273.779 228.271 272.495 219.677 277.46C217.577 278.67 215.453 280.251 213.379 282.203L210.045 274.446C213.206 271.408 216.466 268.937 219.652 267.109Z" fill="#4385FF"/>
<path d="M210.044 274.471L213.378 282.227C212.86 282.721 212.341 283.24 211.822 283.759C200.758 295.147 195.374 312.636 199.746 322.863C199.919 323.234 200.067 323.58 200.264 323.925C200.339 324.049 200.388 324.172 200.462 324.296C203.673 329.928 209.773 331.311 216.564 328.569C217.626 328.149 218.713 327.631 219.799 326.988C220.096 326.816 220.392 326.643 220.664 326.47C221.182 326.149 221.602 325.877 221.997 325.605L222.17 325.482C223.035 324.864 223.899 324.197 224.788 323.456C224.887 323.357 225.01 323.258 225.109 323.16C225.43 322.888 225.751 322.591 226.072 322.295C226.196 322.196 226.319 322.073 226.418 321.949C226.838 321.554 227.258 321.134 227.678 320.714C228.344 320.022 228.987 319.306 229.604 318.59L232.938 326.346C232.296 327.063 231.654 327.779 231.012 328.446C230.419 329.063 229.826 329.632 229.234 330.2C229.061 330.373 228.888 330.521 228.715 330.669C228.27 331.089 227.801 331.509 227.332 331.904C227.184 332.053 227.036 332.176 226.863 332.3C225.628 333.362 224.393 334.325 223.158 335.19C223.059 335.264 222.961 335.338 222.862 335.387C222.294 335.783 221.726 336.153 221.182 336.499L220.985 336.622C220.59 336.87 220.219 337.092 219.824 337.314C218.91 337.833 217.997 338.327 217.083 338.747C216.391 339.068 215.749 339.34 215.107 339.611C204.734 343.712 195.473 341.118 191.324 331.484C185.101 317.009 192.757 292.182 208.439 276.027C208.958 275.484 209.476 274.989 210.02 274.471H210.044Z" fill="#94C3FF"/>
<path d="M281.812 276.496V278.176C281.812 279.164 282.874 279.781 283.739 279.287L291.642 274.742C292.037 274.52 292.284 274.1 292.284 273.63V271.951C292.284 270.962 291.222 270.345 290.358 270.839L282.455 275.384C282.059 275.607 281.812 276.026 281.812 276.496Z" fill="#94C3FF"/>
<path d="M256.795 299.149V300.828C256.795 301.816 257.857 302.434 258.721 301.94L291.642 283.067C292.037 282.845 292.284 282.425 292.284 281.956V280.276C292.284 279.288 291.222 278.67 290.358 279.164L257.437 298.037C257.042 298.259 256.795 298.679 256.795 299.149Z" fill="#94C3FF"/>
<g opacity="0.53">
<path d="M270.354 308.017V309.696C270.354 310.685 271.415 311.302 272.28 310.808L291.642 299.717C292.037 299.494 292.284 299.074 292.284 298.605V296.925C292.284 295.937 291.222 295.319 290.358 295.814L270.996 306.905C270.6 307.127 270.354 307.547 270.354 308.017Z" fill="#94C3FF"/>
</g>
<path d="M261.883 304.558V306.238C261.883 307.226 262.945 307.843 263.809 307.349L291.618 291.391C292.013 291.169 292.26 290.749 292.26 290.28V288.6C292.26 287.612 291.198 286.994 290.333 287.488L262.525 303.446C262.13 303.669 261.883 304.089 261.883 304.558Z" fill="#94C3FF"/>
</g>
<defs>
<linearGradient id="paint0_linear_277_173" x1="219.329" y1="561.886" x2="523.566" y2="561.886" gradientUnits="userSpaceOnUse">
<stop stop-color="white"/>
<stop offset="1" stop-color="#CBDCEB"/>
</linearGradient>
<linearGradient id="paint1_linear_277_173" x1="335.897" y1="352.802" x2="467.018" y2="714.033" gradientUnits="userSpaceOnUse">
<stop stop-color="white"/>
<stop offset="1" stop-color="#CBDCEB"/>
</linearGradient>
<clipPath id="clip0_277_173">
<rect width="700" height="650" fill="white"/>
</clipPath>
</defs>
</svg>
