<?xml version="1.0" encoding="UTF-8" standalone="no"?>
<svg
   width="40"
   height="40"
   viewBox="0 0 45 45"
   fill="none"
   version="1.1"
   id="svg40"
   sodipodi:docname="logo-BACKUP.svg"
   xml:space="preserve"
   inkscape:version="1.2.2 (b0a8486541, 2022-12-01)"
   xmlns:inkscape="http://www.inkscape.org/namespaces/inkscape"
   xmlns:sodipodi="http://sodipodi.sourceforge.net/DTD/sodipodi-0.dtd"
   xmlns="http://www.w3.org/2000/svg"
   xmlns:svg="http://www.w3.org/2000/svg"><sodipodi:namedview
     id="namedview42"
     pagecolor="#ffffff"
     bordercolor="#000000"
     borderopacity="0.25"
     inkscape:showpageshadow="2"
     inkscape:pageopacity="0.0"
     inkscape:pagecheckerboard="0"
     inkscape:deskcolor="#d1d1d1"
     showgrid="false"
     inkscape:zoom="9.8490061"
     inkscape:cx="3.1982923"
     inkscape:cy="31.932156"
     inkscape:window-width="1540"
     inkscape:window-height="876"
     inkscape:window-x="60"
     inkscape:window-y="0"
     inkscape:window-maximized="1"
     inkscape:current-layer="svg40" /><defs
     id="defs38"><linearGradient
       id="paint0_linear_507_4"
       x1="18.9623"
       y1="2.82597e-06"
       x2="18.9623"
       y2="45"
       gradientUnits="userSpaceOnUse"><stop
         stop-color="#9895FF"
         id="stop30" /><stop
         offset="1"
         stop-color="#514DCC"
         id="stop32" /></linearGradient><clipPath
       id="clip0_507_4"><rect
         width="27"
         height="27"
         fill="white"
         transform="translate(8.99902 8.99854)"
         id="rect35" /></clipPath></defs><path
     style="fill:#109911;stroke-width:0.430491"
     d="M 16.53124,43.245561 C 10.050682,37.167292 7.0636342,34.56214 4.4891667,32.743079 0.70488068,30.069188 0.67747022,30.212043 5.5653944,27.133633 c 7.5822686,-4.775305 6.8643546,-4.849242 9.8697876,1.016472 2.183623,4.26178 3.270862,5.919665 3.612073,5.507897 0.08642,-0.104292 0.998189,-1.73939 2.026151,-3.633551 7.532017,-13.87877 24.712178,-33.6415801 22.173348,-25.5066092 -0.834881,2.6751442 -0.762396,8.0077562 0.149665,11.0105192 0.502257,1.653565 0.913191,3.101505 0.913191,3.217645 0,0.11614 -1.014639,0.860952 -2.254754,1.655136 -4.665284,2.987709 -12.758983,11.158073 -17.635596,17.802643 -4.332471,5.903154 -4.639084,6.242123 -5.646293,6.242123 -0.529065,0 -1.537842,-0.540156 -2.241727,-1.200347 z"
     id="path283" /></svg>
