<?xml version="1.0" encoding="UTF-8" standalone="no"?>
<!-- Created with Inkscape (http://www.inkscape.org/) -->

<svg
   width="210mm"
   height="297mm"
   viewBox="0 0 210 297"
   version="1.1"
   id="svg373"
   xml:space="preserve"
   inkscape:version="1.2.2 (b0a8486541, 2022-12-01)"
   sodipodi:docname="verificar_logo.svg"
   xmlns:inkscape="http://www.inkscape.org/namespaces/inkscape"
   xmlns:sodipodi="http://sodipodi.sourceforge.net/DTD/sodipodi-0.dtd"
   xmlns="http://www.w3.org/2000/svg"
   xmlns:svg="http://www.w3.org/2000/svg"><sodipodi:namedview
     id="namedview375"
     pagecolor="#ffffff"
     bordercolor="#000000"
     borderopacity="0.25"
     inkscape:showpageshadow="2"
     inkscape:pageopacity="0.0"
     inkscape:pagecheckerboard="0"
     inkscape:deskcolor="#d1d1d1"
     inkscape:document-units="mm"
     showgrid="false"
     inkscape:zoom="1.4062614"
     inkscape:cx="107.02135"
     inkscape:cy="946.12564"
     inkscape:window-width="1540"
     inkscape:window-height="876"
     inkscape:window-x="60"
     inkscape:window-y="0"
     inkscape:window-maximized="1"
     inkscape:current-layer="layer1" /><defs
     id="defs370" /><g
     inkscape:label="Capa 1"
     inkscape:groupmode="layer"
     id="layer1"><path
       style="fill:#ff0000;stroke-width:0.285;stroke:#ffffff;stroke-opacity:1;stroke-dasharray:none"
       d="m 64.859031,246.03653 c 0,-0.0497 0.547412,-3.09219 0.688617,-3.82724 l 0.08539,-0.4445 h 2.495857 2.495858 l -0.532708,0.55402 -0.532708,0.55402 -1.418928,-0.0249 c -1.300029,-0.0228 -1.420101,-0.0124 -1.43293,0.12332 -0.04108,0.4347 -0.145743,0.40849 1.644053,0.41176 0.919692,0.002 1.672167,0.0181 1.672167,0.0366 0,0.0184 -0.170804,0.21561 -0.379565,0.43816 -0.208761,0.22256 -0.380211,0.43323 -0.381,0.46815 -7.89e-4,0.0349 -0.625641,0.0635 -1.38856,0.0635 -1.366929,0 -1.387869,0.003 -1.438177,0.1905 -0.109448,0.4084 -0.155243,0.39761 1.788135,0.42169 l 1.841501,0.0228 -0.499722,0.52917 -0.499721,0.52917 h -2.103779 c -1.157078,0 -2.103779,-0.0208 -2.103779,-0.0463 z m 5.588001,-0.0664 c 0,-0.20358 0.323373,-1.91077 0.378975,-2.00073 0.03517,-0.0569 0.780558,-0.088 2.11227,-0.088 1.953739,0 2.069212,-0.009 2.281003,-0.17548 0.273711,-0.2153 0.305678,-0.62102 0.05932,-0.75287 -0.0996,-0.0533 -0.945548,-0.0876 -2.159,-0.0876 -1.097378,0 -1.995233,-0.0221 -1.995233,-0.049 0,-0.027 0.197928,-0.27659 0.43984,-0.55472 l 0.43984,-0.50569 1.867327,0.0255 c 1.783588,0.0244 1.885344,0.0348 2.269114,0.23087 1.079761,0.55177 0.837164,2.13746 -0.388918,2.5421 -0.353612,0.1167 -0.366726,0.14475 -0.155665,0.33298 0.188084,0.16774 0.862462,1.06111 0.862462,1.14253 0,0.0324 -0.371475,0.048 -0.8255,0.0346 l -0.8255,-0.0242 -0.378334,-0.57389 -0.378333,-0.57389 -1.060743,0.0236 -1.060743,0.0236 -0.07016,0.381 c -0.155077,0.84213 -0.0732,0.762 -0.778633,0.762 -0.470723,0 -0.633386,-0.0289 -0.633386,-0.11266 z m 6.720493,-0.0175 c 0.02747,-0.0716 0.167233,-0.80501 0.310587,-1.62984 0.143352,-0.82482 0.302036,-1.7378 0.352629,-2.02885 l 0.09199,-0.52916 h 0.622485 c 0.589314,0 0.622444,0.0101 0.621741,0.1905 -4.23e-4,0.10477 -0.152475,1.04775 -0.337924,2.0955 -0.18545,1.04775 -0.337515,1.93357 -0.337924,1.9685 -4.24e-4,0.0349 -0.309619,0.0635 -0.687135,0.0635 -0.582728,0 -0.678849,-0.0197 -0.636449,-0.13015 z m 2.51176,-0.10269 c 0.002,-0.12805 0.09003,-0.69003 0.195682,-1.24883 l 0.192095,-1.016 2.217318,-0.0226 c 1.219525,-0.0124 2.217319,0.008 2.217319,0.0455 0,0.0375 -0.182284,0.24763 -0.405075,0.46708 l -0.405075,0.39898 h -1.2381 -1.238099 l -0.144823,0.80433 -0.144824,0.80434 h -0.625002 -0.625003 l 0.0036,-0.23284 z m 5.399739,0.18927 c -0.02396,-0.024 0.0068,-0.31923 0.06826,-0.65616 0.0615,-0.33694 0.157789,-0.88883 0.213966,-1.22644 l 0.102141,-0.61383 h 0.64975 0.64975 l -0.110976,0.65616 c -0.06104,0.3609 -0.157537,0.9324 -0.214444,1.27 l -0.103466,0.61384 h -0.605709 c -0.333141,0 -0.625313,-0.0196 -0.649273,-0.0436 z m 3.740679,-0.0865 c -0.78623,-0.24413 -1.354671,-0.97946 -1.354671,-1.75238 0,-0.64274 0.01718,-0.65752 0.764231,-0.65752 h 0.66145 l -0.0807,0.29223 c -0.0996,0.36067 0.0702,0.82565 0.36234,0.99212 0.13944,0.0795 0.71639,0.12512 1.95862,0.15498 l 1.76096,0.0423 -0.49096,0.52953 -0.49095,0.52952 -1.35467,-0.006 c -0.90528,-0.004 -1.48105,-0.0455 -1.73566,-0.12456 z m 4.12135,-0.0648 c 0.0849,-0.10717 0.58973,-0.67867 1.12191,-1.27 l 0.96759,-1.07514 h 0.70457 c 0.38752,0 0.70458,0.0211 0.70458,0.0469 0,0.0521 -0.75061,0.93624 -1.59535,1.87922 l -0.54988,0.61384 h -0.75386 -0.75387 z m 2.26203,-0.0803 c 0.11623,-0.15134 0.34349,-0.39899 0.50502,-0.55033 0.29314,-0.27466 0.29533,-0.27517 1.19092,-0.27517 h 0.89723 l -0.33961,-0.67545 c -0.18679,-0.3715 -0.33961,-0.69678 -0.33961,-0.72285 0,-0.0261 0.35242,-0.0364 0.78317,-0.023 l 0.78316,0.0243 0.61092,1.18533 c 0.336,0.65194 0.61223,1.21391 0.61383,1.24884 0.002,0.0349 -1.10392,0.0635 -2.45672,0.0635 h -2.45964 z m 5.342567,0 c 0.0273,-0.15134 0.11572,-0.63712 0.19649,-1.0795 l 0.14686,-0.80433 2.11852,-0.0423 c 1.82869,-0.0365 2.14942,-0.0626 2.34437,-0.1905 0.16465,-0.10802 0.39871,-0.14816 0.86383,-0.14816 0.35089,0 0.63798,0.033 0.63798,0.0733 0,0.21897 -0.59127,0.79792 -0.97367,0.95338 -0.1397,0.0568 -0.26659,0.11245 -0.28198,0.12368 -0.0154,0.0112 0.20368,0.31196 0.48683,0.66827 0.28315,0.35631 0.51482,0.6644 0.51482,0.68463 0,0.0202 -0.3807,0.0368 -0.846,0.0368 h -0.84599 l -0.39409,-0.59267 -0.3941,-0.59267 h -1.03991 -1.03991 l -0.0957,0.48684 c -0.0526,0.26776 -0.11127,0.53446 -0.13034,0.59266 -0.0237,0.0723 -0.23792,0.10584 -0.67617,0.10584 h -0.6415 z m -20.289377,-3.3655 0.129092,-0.67733 h 2.40842 2.408419 l -0.411872,0.4445 c -0.22653,0.24447 -0.457621,0.49212 -0.513538,0.55033 -0.07306,0.0761 -0.484477,0.10583 -1.462381,0.10583 -1.15308,0 -1.360714,0.0194 -1.360714,0.127 0,0.10208 -0.130141,0.127 -0.66326,0.127 h -0.663258 z m 5.405662,0.0212 c 0.06814,-0.36089 0.1351,-0.66738 0.148798,-0.68108 0.0137,-0.0137 0.305794,-0.0137 0.649102,0 l 0.624197,0.0249 -0.114626,0.65617 -0.114626,0.65616 h -0.658369 -0.658369 z m 2.244816,0.381 c 0.115182,-0.15134 0.415342,-0.40019 0.667022,-0.553 0.77997,-0.47356 1.09284,-0.5265 3.11164,-0.5265 h 1.81898 l -0.50085,0.54041 -0.50084,0.54041 -1.31234,0.0136 c -0.89867,0.009 -1.41908,0.0521 -1.651,0.13564 -0.1974,0.0711 -0.65222,0.12255 -1.09035,0.12329 l -0.751683,0.001 z m 7.840212,-0.127 c 0.64607,-0.76638 0.90566,-0.9687 1.29932,-1.01268 0.47572,-0.0531 0.7502,0.15548 1.08987,0.82836 0.13798,0.27335 0.25088,0.51712 0.25088,0.54174 0,0.0246 -0.6703,0.0447 -1.48955,0.0447 h -1.48955 z m 9.667397,0.27516 c -0.0885,-0.1067 -0.44428,-0.127 -2.22571,-0.127 h -2.12031 l 0.50084,-0.54041 0.50085,-0.54041 1.73567,-0.009 c 2.21285,-0.0115 2.67174,0.10542 3.01433,0.76792 0.0651,0.12585 0.11833,0.30692 0.11833,0.40237 0,0.16113 -0.0507,0.17353 -0.7093,0.17353 -0.5272,0 -0.73636,-0.0326 -0.8147,-0.127 z"
       id="path608" /></g></svg>
